<?xml version="1.0" encoding="UTF-8" standalone="no"?>
<!-- Created with Inkscape (http://www.inkscape.org/) -->

<svg
   width="210mm"
   height="297mm"
   viewBox="0 0 210 297"
   version="1.1"
   id="svg1"
   inkscape:version="1.4.2 (f4327f4, 2025-05-13)"
   sodipodi:docname="EagleB.svg"
   xmlns:inkscape="http://www.inkscape.org/namespaces/inkscape"
   xmlns:sodipodi="http://sodipodi.sourceforge.net/DTD/sodipodi-0.dtd"
   xmlns="http://www.w3.org/2000/svg"
   xmlns:svg="http://www.w3.org/2000/svg">
  <sodipodi:namedview
     id="namedview1"
     pagecolor="#ffffff"
     bordercolor="#000000"
     borderopacity="0.25"
     inkscape:showpageshadow="2"
     inkscape:pageopacity="0.0"
     inkscape:pagecheckerboard="0"
     inkscape:deskcolor="#d1d1d1"
     inkscape:document-units="mm"
     inkscape:zoom="0.68862935"
     inkscape:cx="396.43968"
     inkscape:cy="561.25984"
     inkscape:window-width="1920"
     inkscape:window-height="991"
     inkscape:window-x="-9"
     inkscape:window-y="-9"
     inkscape:window-maximized="1"
     inkscape:current-layer="layer1" />
  <defs
     id="defs1" />
  <g
     inkscape:label="Layer 1"
     inkscape:groupmode="layer"
     id="layer1">
    <g
       id="g68"
       transform="matrix(0.26458333,0,0,0.26458333,-194.53347,116.2404)">
      <path
         style="fill:#272525"
         d="m 1132.6032,94.753098 c -0.2317,-0.666646 2.7894,2.37532 2.8761,1.185859 0.823,0.02473 1.8385,-1.197075 2.6012,-1.538508 0.7686,-0.344194 1.4238,-0.897547 1.8079,-1.675375 0.452,-0.914797 0.3447,-1.869166 0.3503,-2.852033 0,-0.514448 -0.077,-1.030343 0,-1.544071 0.052,-0.339321 0.1577,-0.657336 0.303,-0.96285 0.017,-1.99e-4 0.032,-0.0028 0.048,-0.003 1.3203,0.0094 2.5198,0.714759 3.7123,1.19636 1.0078,0.407399 2.1115,0.736056 3.2115,0.579409 1.0626,-0.151209 1.93,-0.753385 2.6024,-1.596765 0.3723,-0.467031 0.674,-0.986987 1.0077,-1.481799 0.1521,-0.226761 0.2967,-0.452221 0.461,-0.669899 0.054,-0.07216 0.1118,-0.148991 0.1676,-0.227142 0.5111,0.07327 1.0336,0.08557 1.5408,0.0036 0.7454,-0.119328 1.4198,-0.4141 1.9946,-0.924015 0.2901,-0.257406 0.531,-0.562637 0.7656,-0.871441 0.1277,-0.167837 0.281,-0.343913 0.4118,-0.533587 0.9989,0.341515 2.1526,0.406529 3.1801,0.127586 1.1331,-0.308044 1.9941,-1.230579 2.7622,-2.091112 0.4077,-0.456445 0.7891,-0.939804 1.1565,-1.429591 0.2103,-0.280661 0.5276,-0.638512 0.7035,-1.011751 0.9629,0.07167 1.968,0.143187 2.8792,-0.251091 0.8526,-0.369188 1.5586,-0.996785 2.1146,-1.749802 0.3215,-0.435025 0.5762,-0.909656 0.7984,-1.402432 0.081,-0.17807 0.1855,-0.395659 0.2546,-0.619681 l -2e-4,9.69e-4 c 1.261,0.209051 2.5957,0.333951 3.7013,-0.480533 0.5297,-0.390156 0.9558,-0.888503 1.2887,-1.461622 0.1754,-0.302433 0.3372,-0.612232 0.4824,-0.93012 0.068,-0.149314 0.1475,-0.297793 0.1974,-0.454447 0.01,-0.03211 0.014,-0.06441 0.023,-0.09714 1.0925,-0.01445 2.2045,-0.109618 3.2011,-0.611872 0.6634,-0.334441 1.1642,-0.861132 1.5662,-1.48657 0.3751,-0.581547 0.7615,-1.218978 1.0128,-1.880567 0.025,0.0016 0.048,0.0054 0.072,0.0071 0.8832,0.06079 1.7929,-0.02324 2.6286,-0.347181 0.7563,-0.293577 1.4631,-0.757464 1.9562,-1.423781 0.2845,-0.384215 0.4902,-0.825399 0.6499,-1.276594 0.072,-0.203705 0.1346,-0.410929 0.2137,-0.612029 0.019,-0.03653 0.03,-0.07489 0.047,-0.112283 0.8647,0.107785 1.7038,0.01811 2.5357,-0.27281 0.7736,-0.270955 1.5736,-0.639418 2.0841,-1.322172 0.2789,-0.374195 0.43,-0.823374 0.5749,-1.264719 0.084,-0.255464 0.1872,-0.526893 0.252,-0.801325 0.2935,0.109535 0.5956,0.192274 0.9129,0.198513 0.4451,0.0091 0.8679,-0.145498 1.2768,-0.310653 0.7891,-0.318642 1.693,-0.584038 2.3401,-1.172266 0.6079,-0.553388 0.7482,-1.365082 0.8227,-2.15551 1.1663,0.06394 2.3787,-0.223042 3.4947,-0.536304 0.8887,-0.249488 1.6566,-0.560884 2.1306,-1.42615 0.2084,-0.379872 0.3392,-0.80921 0.3907,-1.238023 0.031,-0.257864 0.058,-0.537292 0.053,-0.813993 0.1082,0.0033 0.2137,8.8e-4 0.3083,9.44e-4 0.3626,-0.0024 0.7076,-0.03893 1.0627,-0.117245 0.7447,-0.163701 1.4379,-0.510562 2.018,-1.021246 1.0472,-0.922131 1.6652,-2.503532 1.5254,-3.922317 0.7063,-0.264503 1.4056,-0.547139 2.0877,-0.869864 0.6904,-0.326929 1.4727,-0.651332 2.0902,-1.133523 0.2804,0.151603 0.635,0.225397 0.9023,0.307046 0.5376,0.163962 1.0833,0.293908 1.6395,0.380095 1.0678,0.165769 2.1139,0.160738 3.1809,-0.03877 0.8958,-0.167575 1.7562,-0.448576 2.5601,-0.897371 0.6957,-0.387382 1.4354,-0.89884 1.9721,-1.523869 0.7146,0.18897 1.4492,-0.121139 2.1209,-0.451535 0.885,-0.435475 1.7642,-0.880615 2.6481,-1.319497 0.4321,-0.215085 0.8617,-0.432826 1.2933,-0.650097 0.4119,-0.207651 0.9057,-0.380135 1.2688,-0.671478 0.3902,-0.314642 0.3665,-0.790293 0.3971,-1.251888 0.024,-0.362363 0.06,-0.732333 0.012,-1.091346 1.59,-0.505933 3.1611,-1.079116 4.7032,-1.724053 1.0861,-0.45508 2.1592,-0.94524 3.2163,-1.467956 0.5145,-0.253968 1.0626,-0.463836 1.0963,-1.131405 0.01,-0.09354 0.011,-0.341857 -0.013,-0.587342 0.1009,-0.0023 0.2021,-0.0029 0.3025,-0.0055 1.3943,-0.04592 2.7936,-0.113244 4.1774,-0.312828 1.3421,-0.193122 2.659,-0.525021 3.9496,-0.953643 1.4428,-0.479586 2.8759,-1.004652 4.2539,-1.660171 0.1938,-0.0923 0.1623,-0.350794 0.053,-0.483898 -0.2069,-0.252223 -0.4513,-0.527879 -0.7268,-0.755467 0.2348,0.0286 0.4689,0.06423 0.7042,0.09087 1.7074,0.191725 3.423,0.323717 5.1434,0.358164 1.7217,0.0337 3.4216,-0.107526 5.1382,-0.224163 2.0208,-0.137201 4.0436,-0.325361 6.0665,-0.411656 0.3688,-0.01536 0.5285,-0.569391 0.1784,-0.742918 -2.3743,-1.179633 -4.8142,-2.171392 -7.367,-2.881706 -0.7625,-0.211825 -1.5337,-0.388608 -2.3096,-0.549118 3.6673,0.09848 7.3346,0.205248 11.0005,0.335318 1.1736,0.04202 2.3469,0.08503 3.5212,0.124147 1.1925,0.04039 2.3932,0.04674 3.5832,0.13181 0.4065,0.03279 0.516,-0.603252 0.1781,-0.785103 v 0 c -2.1016,-1.132751 -4.3646,-1.979201 -6.6365,-2.689962 -2.2872,-0.715501 -4.6249,-1.314566 -6.9681,-1.818274 -2.2952,-0.493254 -4.6079,-0.931043 -6.9224,-1.327059 -1.3405,-0.229179 -2.6883,-0.432311 -4.0394,-0.596109 0.034,-0.0024 0.067,-0.0045 0.1003,-0.0076 5.6237,-0.460376 11.234,-1.083354 16.8429,-1.717958 3.0264,-0.342216 6.0772,-0.627178 9.0244,-1.474821 0.496,-0.14317 0.3813,-0.779489 -0.021,-0.931666 -1.5957,-0.601941 -3.2924,-0.923791 -4.9732,-1.179089 -1.676,-0.254105 -3.3659,-0.424177 -5.0567,-0.548161 -3.3691,-0.248073 -6.7501,-0.365302 -10.1253,-0.510957 -6.6446,-0.286481 -13.2989,-0.523888 -19.9548,-0.386301 -0.1394,0.0025 -0.2781,0.0063 -0.4179,0.0098 2.7976,-0.331311 5.594,-0.670155 8.3904,-1.018186 3.6656,-0.456156 7.3307,-0.9227792 10.9955,-1.3884044 3.4919,-0.4433797 7.0026,-0.8112365 10.4788,-1.3776927 1.8357,-0.2998951 3.6671,-0.646104 5.4708,-1.1171915 1.8313,-0.4788565 3.6148,-1.1100836 5.3893,-1.7763862 0.4206,-0.1582311 0.4115,-0.7548162 -0.02,-0.880982 -3.6192,-1.0618756 -7.4869,-1.14369 -11.2396,-1.0272386 -3.7405,0.1163459 -7.4807,0.4117058 -11.2162,0.666016 -7.3434,0.5001419 -14.693,1.0944227 -21.9761,2.2559146 -0.4696,0.075506 -0.9391,0.1592546 -1.4087,0.2388819 1.4304,-0.3766182 2.8623,-0.7466968 4.294,-1.1157801 6.975,-1.792845 13.9399,-3.61273568 20.6835,-6.2200109 1.8737,-0.723761 3.7238,-1.5127746 5.5419,-2.3733012 1.8634,-0.882514 3.6973,-1.8183517 5.3193,-3.1259719 0.292,-0.2353731 0.3277,-0.8386653 -0.1347,-0.9043871 -0.8359,-0.1204243 -1.7109,-0.095895 -2.5541,-0.065876 -0.8081,0.029232 -1.6149,0.099901 -2.4187,0.2011337 -1.6403,0.2058807 -3.2625,0.5416224 -4.8728,0.9264727 -3.3833,0.8098048 -6.7457,1.7161982 -10.124,2.551915 -6.8706,1.7006503 -13.7679,3.277582 -20.6827,4.76811728 -1.8438,0.39774592 -3.6925,0.77367512 -5.539,1.16151122 1.1008,-0.45161663 2.2016,-0.90320439 3.2989,-1.36592171 5.3063,-2.23642089 10.6222,-4.49941489 15.5458,-7.55785599 1.3731,-0.853165 2.7125,-1.7637237 4.0043,-2.7412601 1.2764,-0.964783 2.8156,-2.064965 3.3286,-3.675691 0.1261,-0.396567 -0.2893,-0.700031 -0.6337,-0.611796 -1.7268,0.442212 -3.4398,0.942294 -5.1447,1.473069 -0.3869,0.08613 -0.7718,0.186055 -1.1505,0.285453 -1.267,0.330423 -2.511,0.748678 -3.7366,1.214562 -2.5076,0.953105 -4.9379,2.1068184 -7.3921,3.197216 -5.2425,2.3299534 -10.6052,4.3595507 -16.0233,6.2041347 -11.0836,3.7736949 -22.3827,6.838538 -33.6237,10.0551508 L 1146.5282,18.0086 c -5.3092,1.519982 -10.708,2.868364 -15.358,6.059335 -4.4939,3.084487 -8.3847,7.079849 -12.4896,10.669022 -8.2858,7.246497 -19.3136,17.843871 -28.8588,23.246534 -0.8572,0.622234 5.0129,4.609562 4.5276,4.613977"
         id="path66"
         inkscape:transform-center-x="-69.658391"
         inkscape:transform-center-y="-36.143864" />
      <path
         style="fill:#272525"
         d="m 1105.0697,57.954012 c 1.4312,2.050055 -44.3427,10.267456 -46.7693,11.08628 -1.22,0.46 0.7233,2.155807 -0.4377,2.758807 -1.165,0.605 -2.294,1.293 -3.383,2.033 -1.06,0.72 -2.155,1.462 -3.073,2.37 -0.491,0.485 -0.935,1.045 -1.218,1.685 -0.215,0.486 -0.4,1.082 -0.427,1.657 -0.796,0.675 -1.56,1.389 -2.069,2.327 -0.647,1.192 -0.753,2.645 -0.58,3.976 0.182,1.398 0.763,2.626 1.539,3.777 0.394,0.585 0.842,1.136 1.307,1.663 0.298,0.337 0.621,0.727 0.989,1.029 0.07,0.138 0.155,0.261 0.267,0.349 0.072,0.056 0.187,0.046 0.274,-0.002 0.014,0.007 0.028,0.015 0.043,0.021 0.085,0.036 0.138,-0.076 0.108,-0.143 -0.01,-0.016 -0.019,-0.03 -0.027,-0.046 0.063,-0.195 0.045,-0.375 0.029,-0.586 -0.019,-0.242 -0.03,-0.484 -0.047,-0.726 -0.01,-0.085 -0.018,-0.17 -0.025,-0.255 0.053,-0.121 0.076,-0.237 0.074,-0.377 -10e-4,-0.125 -0.048,-0.255 0.022,-0.35 0.08,-0.109 0.411,-0.212 0.536,-0.279 0.185,-0.099 0.368,-0.201 0.552,-0.304 0.416,-0.231 0.832,-0.463 1.248,-0.695 0.371,0.321 1.013,0.251 1.473,0.306 0.519,0.061 1.037,0.137 1.55,0.239 1.039,0.207 2.065,0.507 3.058,0.882 0.997,0.376 1.96,0.85 2.879,1.395 0.938,0.557 1.812,1.271 2.791,1.745 0.081,0.039 0.197,-0.047 0.136,-0.139 -0.078,-0.116 -0.162,-0.229 -0.25,-0.338 -0.032,-0.081 -0.075,-0.163 -0.115,-0.229 -0.069,-0.117 -0.12,-0.24 -0.177,-0.364 v 0 c 10e-4,-0.002 0,-10e-4 0,-0.005 0,-0.012 -0.022,-0.174 -0.011,-0.086 -10e-4,-0.01 0,-0.02 0,-0.029 0.013,0.002 0.03,0.006 0.043,0.009 0.028,0.007 0.057,0.014 0.085,0.021 0.056,0.014 0.112,0.027 0.168,0.04 0.044,0.02 0.089,0.038 0.132,0.059 1.096,0.506 2.159,1.076 3.226,1.643 1.103,0.587 2.222,1.142 3.331,1.717 1.088,0.564 2.17,1.154 3.284,1.656 0.101,0.046 0.253,-0.056 0.186,-0.173 -10e-4,-0.007 10e-4,-0.013 -10e-4,-0.02 -0.024,-0.076 -0.052,-0.148 -0.093,-0.216 -0.02,-0.033 -0.041,-0.066 -0.063,-0.098 v -0.006 c 0,-0.004 0,-0.011 -0.011,-0.027 -0.01,-0.025 -0.021,-0.05 -0.036,-0.073 0,-0.007 -0.01,-0.014 -0.011,-0.021 0.016,0.039 0.014,0.037 0,-0.008 0,0.005 -0.035,-0.079 -0.036,-0.079 l 0.013,0.032 -0.024,-0.06 c 0,-0.005 -0.012,-0.031 -0.022,-0.054 0,0.003 0,-0.011 -0.01,-0.023 0,0.008 0,0.011 0.01,0.015 0,-0.007 -0.01,-0.018 -0.01,-0.02 v 0.005 -0.001 c -0.01,-0.018 -0.012,-0.037 -0.018,-0.055 -0.012,-0.037 -0.021,-0.075 -0.03,-0.113 -10e-4,-0.006 -10e-4,-0.01 -10e-4,-0.016 0.052,0.036 0.107,0.07 0.154,0.105 0.256,0.191 0.517,0.372 0.784,0.548 0.514,0.34 1.032,0.674 1.558,0.994 1.052,0.64 2.121,1.251 3.203,1.836 2.205,1.192001 4.461,2.268001 6.766,3.241001 2.341,0.988 4.718,1.881 7.094,2.777 2.4,0.906 4.805,1.707 7.333,2.141 1.363,0.234 2.74,0.39 4.119,0.487 0.586,0.041 1.173,0.081 1.759,0.092 0.061,0.005 0.122,0.009 0.182,0.015 0.67,0.063 1.341,0.126 2.013,0.156 1.322,0.059 2.644,0.074 3.967,0.06 2.669,-0.028 5.336,-0.154 8,-0.312 2.646,-0.157 5.29,-0.341 7.935,-0.517 2.645,-0.176 5.291,-0.314 7.936,-0.488 1.465,-0.096 2.929,-0.246 4.387,-0.424 0.317,-0.039 0.633,-0.088 0.949,-0.131 0.025,0.004 0.051,0.004 0.078,-0.002 0.028,-0.006 0.057,-0.014 0.086,-0.021 0.201,-0.028 0.401,-0.053 0.602,-0.083 0.09,0.015 0.18,0.048 0.272,0.048 0.1,0 0.208,-0.03 0.305,-0.053 0.445,-0.104 0.882,-0.235 1.331,-0.328 0.423,-0.087 0.849,-0.159 1.277,-0.207 0.476,-0.054 0.95,-0.07 1.415,-0.194 0.31,-0.083 0.385,-0.476 0.181,-0.704 -0.111,-0.124 -0.196,-0.283 -0.274,-0.446 0.702,-0.135 1.423,0.587 1.998,0.894 0.959,0.511 1.95,0.268 2.903,-0.123 0.955,-0.393 1.861,-0.868 2.751,-1.396 0.411,-0.244 0.829,-0.46 1.261,-0.661 0.277,-0.129 0.585,-0.203 0.875,-0.307 0.192,0.05 0.385,0.1 0.577,0.146 0.532,0.128 1.052,0.289 1.592,0.377 0.545,0.089 1.093,0.162 1.642,0.218 1.086,0.111 2.18,0.152 3.271,0.121 0.546,-0.015 1.091,-0.049 1.635,-0.1 0.543,-0.051 1.085,-0.096 1.575,-0.361 0.234,-0.127 0.233,-0.508 0,-0.635 -0.025,-0.014 -0.043,-0.034 -0.064,-0.051 0.298,0.099 0.581,0.292 0.841,0.435 0.46,0.253 0.936,0.408 1.454,0.475 0.996,0.128 1.995,-0.033 2.992,-0.05 1.053,-0.017 2.096,0.091 3.128,0.306 0.799,0.167 1.981,0.537 2.634,-0.107 0.147,-0.017 0.294,-0.043 0.44,-0.059 0.289,-0.03 0.578,-0.054 0.868,-0.076 0.619,-0.046 1.24,-0.098 1.861,-0.122 1.213,-0.047 2.469,-0.118 3.674,0.07 0.574,0.09 1.119,0.307 1.692,0.395 0.52,0.079 1.087,0.058 1.587,-0.121 0.413,-0.148 0.81,-0.39 1.062,-0.767 0.058,0.007 0.116,0.017 0.174,0.022 1.429,0.117 2.807,-0.364 3.956,-1.224 0.201,-0.151 0.334,-0.512 0.089,-0.709 -0.054,-0.043 -0.106,-0.085 -0.159,-0.128 2.805,0.005 5.777,0.342 8.215,-1.26 0.194,-0.127 0.213,-0.371001 0.069,-0.544001 -0.347,-0.417 -0.704,-0.787 -1.099,-1.132 0.411,-0.136 0.825,-0.262 1.242,-0.391 0.27,-0.083 0.402,-0.465 0.174,-0.674 -0.173,-0.159 -0.265,-0.352 -0.411,-0.532 -0.018,-0.022 -0.036,-0.043 -0.054,-0.065 0.338,-0.145 0.685,-0.276 1.012,-0.444 0.507,-0.261 0.964,-0.601 1.402,-0.968 0.158,-0.132 0.116,-0.382 0,-0.52 -0.397,-0.475 -0.864,-0.867 -1.374,-1.193 1.21,-0.331 2.42,-0.714 3.578,-1.179 0.271,-0.109 0.373,-0.501 0.085,-0.669 -0.609,-0.357 -1.309,-0.574 -2.004,-0.47 -0.668,-0.12 -1.35,-0.128 -2.029,-0.161 -0.779,-0.039 -1.558,-0.076 -2.338,-0.114 -1.579,-0.077 -3.159,-0.154 -4.738,-0.23 -3.117,-0.151 -6.234,-0.303 -9.351,-0.456 -3.16,-0.156 -6.318,-0.33 -9.477,-0.507 -3.061,-0.171 -6.168,-0.203 -9.199,-0.698 -1.608,-0.263 -3.17,-0.744 -4.674,-1.379 -1.9167,-0.678135 -2.8751,-1.136235 -3.4379,-2.013027"
         id="path67"
         sodipodi:nodetypes="ccsccscsccccccccccccccsccccccscccssscccscccscccscsccccccccccccccccccssscssccscsscccsccsccccscccssccsscscccsccccccsccsccccccscccscccccscccscccccc" />
      <path
         style="fill:#272525"
         d="m 1108.2359,59.657889 c -1.1036,0.04864 -36.9272,-27.515908 -38.0289,-27.433488 -0.9208,0.06867 -1.8855,0.162176 -2.793,0.383131 -0.161,-0.01785 -0.3214,-0.03491 -0.4816,-0.05336 -1.7293,-0.186545 -3.466,-0.300615 -5.2011,-0.341698 -3.4786,-0.08329 -6.959,0.09926 -10.3863,0.617709 -0.9625,0.145881 -1.9205,0.31232 -2.8735,0.505112 -0.8781,0.17707 -1.7821,0.371389 -2.611,0.714793 -0.1647,-0.231625 -0.3352,-0.456191 -0.5381,-0.663647 -0.587,-0.600971 -1.3633,-0.819101 -2.1463,-1.019566 -0.7443,-0.191037 -1.4955,-0.313804 -2.2593,-0.352646 -0.3996,-0.02035 -0.7989,-0.0271 -1.1975,-0.0017 -0.084,0.0052 -0.1795,0.0089 -0.2782,0.01648 -0.2449,-0.320055 -0.5029,-0.627584 -0.787,-0.905059 -1.3516,-1.320438 -3.5287,-1.700677 -5.32,-1.700016 -0.5208,6.18e-4 -1.0631,0.01764 -1.5677,0.143113 -0.051,0.01249 -0.1596,0.04154 -0.2792,0.08269 -0.2646,-0.375468 -0.5271,-0.751356 -0.8044,-1.117101 -0.3379,-0.441565 -0.7364,-0.705737 -1.2811,-0.788893 -1.0117,-0.153858 -2.0442,-0.242714 -3.0626,-0.319704 -1.0304,-0.07788 -2.0738,-0.111823 -3.1012,-0.02952 -0.2978,0.02387 -0.5983,0.05237 -0.89,0.110581 -0.1583,0.03173 -0.3448,0.06113 -0.4969,0.137195 -0.1093,-0.175755 -0.2289,-0.34361 -0.3817,-0.482345 -0.3427,-0.319513 -0.8158,-0.45736 -1.2685,-0.486199 -0.9903,-0.06326 -2.0182,0.09245 -2.9816,0.283144 -1.0023,0.199067 -1.9968,0.472662 -2.9407,0.859975 -0.5124,0.210747 -1.0171,0.444622 -1.5003,0.714891 -0.1626,0.09037 -0.4033,0.205295 -0.6294,0.34428 l -0.033,-0.152087 c -0.126,-0.576013 -0.2689,-1.11006 -0.8339,-1.399229 -0.4963,-0.25363 -1.122,-0.258401 -1.6604,-0.302215 -1.1672,-0.09536 -2.3617,-0.162251 -3.4982,0.128113 -1.0796,0.275816 -2.0519,0.849812 -2.9066,1.54788 -0.4921,0.401761 -0.9489,0.843183 -1.3784,1.310343 -0.064,0.06922 -0.1307,0.140266 -0.1964,0.210702 -0.02,-0.69744 -0.047,-1.404411 -0.1586,-2.094769 -0.2146,-1.325394 -0.9082,-2.717374 -2.29425,-3.108637 -0.6229,-0.175606 -1.2642,-0.121824 -1.8986,-0.179113 -0.6189,-0.05524 -1.2317,-0.17314 -1.8504,-0.241181 -1.281,-0.140463 -2.8944,-0.09331 -3.4452,1.285056 -0.2056,0.516206 -0.3185,1.08612 -0.3645,1.651389 -0.2858,-0.521669 -0.5716,-1.043339 -0.8437,-1.571742 -0.3149,-0.608994 -0.5963,-1.249912 -0.9953,-1.810893 -0.3991,-0.560981 -0.9379,-0.982208 -1.5812,-1.21402 -0.5957,-0.21407 -1.2272,-0.30379 -1.8453,-0.413839 -1.6737,-0.298286 -3.354,-0.649511 -5.0388,-0.848686 -0.2339,-0.02755 -0.5047,0.13687 -0.5146,0.393777 v 0.413392 c -0.4315,-0.526066 -0.8686,-1.047879 -1.3229,-1.552725 -0.8376,-0.931772 -1.782,-1.596703 -2.9938,-1.90344 -1.205,-0.304403 -2.4796,-0.252119 -3.6909,-0.112241 -0.23974,0.02731 -0.41635,0.255624 -0.38381,0.498922 0.0607,0.449635 0.12068,0.899879 0.18221,1.348907 0.009,0.06471 0.0175,0.131438 0.0257,0.198161 -0.2948,-0.143366 -0.59174,-0.281311 -0.88896,-0.406453 -0.50406,-0.211153 -1.02021,-0.390387 -1.54443,-0.535743 -0.46165,-0.127757 -0.98026,-0.229565 -1.42293,-0.0067 -0.36862,0.186361 -0.54658,0.607095 -0.48824,1.015752 0.0712,4.006299 0.81547,8.015114 1.80843,11.907927 0.9996,3.91795 2.17369,8.052428 4.65352,11.342685 1.2648,1.677691 2.8615,3.053569 4.5589,4.268069 0.865,0.618694 1.7486,1.215608 2.5978,1.856454 0.8823,0.66593 1.7429,1.37107 2.6372,2.016483 3.5531,2.563482 7.0866,5.160754 10.6739,7.676705 1.4947,1.048445 3.0737,2.058877 4.82116,2.596664 1.733,0.533725 3.5218,0.54129 5.2857,0.295881 1.7625,-0.245594 3.4879,-0.689441 5.2351,-1.012691 1.7611,-0.326385 3.5363,-0.586703 5.3189,-0.784688 7.1722,-0.796348 14.4483,-0.571649 21.6382,0.354914 7.7929,2.064406 16.6735,5.20288 23.2325,10.318719"
         id="path68"
         sodipodi:nodetypes="csccccccccsscccscccsssccsccccsccsscccccccccsccsccccccccccccccsscscccccc" />
    </g>
  </g>
</svg>
