<?xml version="1.0" encoding="UTF-8" standalone="no"?>
<!-- Created with Inkscape (http://www.inkscape.org/) -->

<svg
   width="210mm"
   height="297mm"
   viewBox="0 0 210 297"
   version="1.1"
   id="svg1"
   inkscape:version="1.4.2 (f4327f4, 2025-05-13)"
   sodipodi:docname="EagleA.svg"
   xmlns:inkscape="http://www.inkscape.org/namespaces/inkscape"
   xmlns:sodipodi="http://sodipodi.sourceforge.net/DTD/sodipodi-0.dtd"
   xmlns="http://www.w3.org/2000/svg"
   xmlns:svg="http://www.w3.org/2000/svg">
  <sodipodi:namedview
     id="namedview1"
     pagecolor="#ffffff"
     bordercolor="#000000"
     borderopacity="0.25"
     inkscape:showpageshadow="2"
     inkscape:pageopacity="0.0"
     inkscape:pagecheckerboard="0"
     inkscape:deskcolor="#d1d1d1"
     inkscape:document-units="mm"
     inkscape:zoom="0.68862935"
     inkscape:cx="396.43968"
     inkscape:cy="561.25984"
     inkscape:window-width="1920"
     inkscape:window-height="991"
     inkscape:window-x="-9"
     inkscape:window-y="-9"
     inkscape:window-maximized="1"
     inkscape:current-layer="layer1" />
  <defs
     id="defs1" />
  <g
     inkscape:label="Layer 1"
     inkscape:groupmode="layer"
     id="layer1">
    <g
       id="g78"
       transform="matrix(0.26458333,0,0,0.26458333,-165.42977,86.949756)">
      <g
         id="g62"
         transform="translate(-110.68554,153.67909)">
        <path
           style="fill:#272525"
           d="m 1158.4453,85.766981 c -0.3812,-0.593979 3.2666,1.658845 3.0734,0.481982 0.806,-0.168 1.5084,-1.59308 2.1704,-2.10308 0.667,-0.514 1.175,-1.205 1.367,-2.051 0.226,-0.995 -0.101,-1.898 -0.325,-2.855 -0.117,-0.501 -0.315,-0.984 -0.358,-1.502 -0.029,-0.342 0,-0.676 0.07,-1.007 0.016,-0.004 0.03,-0.01 0.046,-0.014 1.286,-0.299 2.617,0.107 3.889,0.297 1.075,0.161 2.225,0.223 3.258,-0.186 0.998,-0.395 1.701,-1.183 2.158,-2.16 0.253,-0.541 0.425,-1.117 0.634,-1.676 0.095,-0.256 0.183,-0.509 0.292,-0.759 0.036,-0.083 0.074,-0.171 0.11,-0.26 0.514,-0.048 1.025,-0.158 1.499,-0.356 0.697,-0.29 1.284,-0.734001 1.724,-1.364001 0.222,-0.318 0.385,-0.671 0.541,-1.026 0.085,-0.193 0.193,-0.4 0.276,-0.615 1.051,0.099 2.188,-0.107 3.122,-0.618 1.03,-0.564 1.652,-1.662 2.198,-2.678 0.29,-0.539 0.548,-1.098 0.791,-1.66 0.139,-0.322 0.364,-0.744 0.448,-1.148 0.953,-0.155 1.947,-0.32 2.741,-0.916 0.743,-0.558 1.283,-1.333 1.648,-2.195 0.211,-0.498 0.348,-1.019 0.449,-1.55 0.037,-0.192 0.088,-0.428 0.103,-0.662 v 10e-4 c 1.275,-0.091 2.602,-0.281 3.487,-1.331 0.424,-0.503 0.722,-1.087 0.912,-1.722 0.1,-0.335 0.185,-0.674 0.252,-1.017 0.031,-0.161 0.074,-0.324 0.086,-0.488 0,-0.033 -10e-4,-0.066 0,-0.1 1.059,-0.269 2.118,-0.621 2.97,-1.341999 0.567,-0.48 0.931,-1.109 1.176,-1.811 0.229,-0.653 0.456,-1.363 0.546,-2.065 0.024,-0.004 0.048,-0.006 0.072,-0.01 0.873,-0.147 1.738,-0.441 2.475,-0.951 0.667,-0.462 1.246,-1.078 1.57,-1.841 0.187,-0.44 0.284,-0.917 0.334,-1.393 0.023,-0.215 0.035,-0.431 0.065,-0.645 0.01,-0.04 0.012,-0.08 0.019,-0.12 0.866,-0.097 1.661,-0.38 2.402,-0.857 0.689,-0.444 1.381,-0.989 1.718,-1.772 0.184,-0.429 0.226,-0.901 0.264,-1.364 0.022,-0.268 0.059,-0.556 0.058,-0.838 0.311,0.038 0.624,0.048 0.934,-0.02 0.435,-0.095 0.81,-0.344 1.169,-0.6 0.693,-0.494 1.51,-0.963 2.002,-1.686 0.462,-0.68 0.409,-1.502 0.297,-2.288 1.149,-0.21 2.261,-0.772 3.273,-1.337 0.806,-0.45 1.48,-0.932 1.739,-1.884 0.114,-0.418 0.141,-0.866 0.091,-1.295 -0.03,-0.258 -0.069,-0.536 -0.138,-0.804 0.106,-0.022 0.208,-0.049 0.3,-0.071 0.352,-0.087 0.679,-0.203 1.006,-0.362 0.686,-0.333 1.279,-0.832 1.724,-1.464 0.803,-1.141 1.035,-2.823 0.568,-4.17 0.625,-0.422 1.239,-0.86 1.827,-1.333 0.595,-0.479 1.28,-0.977 1.768,-1.59 0.308,0.082 0.67,0.071 0.949,0.088 0.561,0.034 1.122,0.033 1.683,-0.013 1.077,-0.088 2.093,-0.337 3.084,-0.78 0.832,-0.372 1.603,-0.846 2.28,-1.47 0.586,-0.539 1.186,-1.209 1.562,-1.942 0.739,0.017 1.381,-0.456 1.957,-0.934 0.759,-0.63 1.51,-1.268 2.267,-1.901 0.37,-0.31 0.737,-0.622 1.106,-0.934 0.352,-0.298 0.792,-0.581 1.077,-0.9489998 0.306,-0.397 0.172,-0.854 0.094,-1.31 -0.061,-0.358 -0.113,-0.726 -0.243,-1.064 1.428,-0.863 2.822,-1.787 4.171,-2.774 0.95,-0.696 1.879,-1.423 2.785,-2.1780001 0.441,-0.367 0.925,-0.699 0.802,-1.356 -0.017,-0.092 -0.069,-0.33499994 -0.15,-0.56799994 0.098,-0.026 0.196,-0.05 0.293,-0.076 1.345,-0.37 2.69,-0.762 3.989,-1.279 1.26,-0.50099996 2.463,-1.13099996 3.618,-1.84899996 1.291,-0.803 2.562,-1.648 3.749,-2.607 0.167,-0.135 0.076,-0.379 -0.061,-0.483 -0.26,-0.197 -0.562,-0.408 -0.883,-0.565 0.235,-0.027 0.471,-0.047 0.706,-0.076 1.705,-0.212 3.404,-0.484 5.085,-0.852 1.682,-0.369 3.302,-0.903 4.944,-1.4170002 1.933,-0.605 3.856,-1.26 5.803,-1.816 0.355,-0.101 0.381,-0.677 0,-0.764 -2.584,-0.593 -5.188,-0.988 -7.836,-1.083 -0.791,-0.028 -1.582,-0.02 -2.374,0.005 3.589,-0.76 7.18,-1.512 10.775,-2.241 1.151,-0.233 2.302,-0.465 3.453,-0.701 1.169,-0.239 2.338,-0.513 3.515,-0.708 0.403,-0.063 0.361,-0.707 -0.01,-0.805 v 0 c -2.308,-0.611 -4.706,-0.906 -7.081,-1.067 -2.391,-0.162 -4.804,-0.199 -7.2,-0.142 -2.347,0.056 -4.698,0.17 -7.041,0.325 -1.357,0.09 -2.715,0.207 -4.067,0.363 0.032,-0.01 0.064,-0.02 0.096,-0.031 5.361,-1.76 10.671,-3.675 15.977,-5.601 2.863,-1.039 5.763,-2.028 8.431,-3.54 0.449,-0.255 0.189,-0.847 -0.238,-0.901 -1.692,-0.213 -3.417,-0.13 -5.111,0.014 -1.689,0.144 -3.372,0.373 -5.045,0.647 -3.334,0.545 -6.649,1.22 -9.965,1.866 -6.528,1.272 -13.054,2.594 -19.494,4.281 -0.135,0.035 -0.269,0.071 -0.404,0.107 2.643,-0.975 5.283,-1.957 7.921,-2.948 3.458,-1.299 6.913,-2.608 10.368,-3.916 3.292,-1.246 6.62,-2.423 9.868,-3.785 1.715,-0.72 3.415,-1.484 5.059,-2.363 1.669,-0.893 3.256,-1.923 4.826,-2.985 0.372,-0.252 0.224,-0.83 -0.225,-0.852 -3.767,-0.188 -7.547,0.635 -11.169,1.624 -3.61,0.986 -7.178,2.146 -10.751,3.265 -7.024,2.2 -14.032,4.493 -20.843,7.322 -0.439,0.183 -0.876,0.374 -1.314,0.561 1.303,-0.7 2.609,-1.394 3.915,-2.087 6.364,-3.371 12.712,-6.766 18.661,-10.875 1.653,-1.141 3.268,-2.34 4.835,-3.601 1.606,-1.293 3.171,-2.631 4.443,-4.281 0.229,-0.297 0.123,-0.892 -0.342,-0.848 -0.841,0.078 -1.686,0.306 -2.499,0.532 -0.779,0.217 -1.547,0.474 -2.305,0.76 -1.547,0.583 -3.046,1.288 -4.522,2.038 -3.101,1.577 -6.159,3.243 -9.249,4.844 -6.284,3.257 -12.623,6.4 -18.999,9.463 -1.7,0.817 -3.41,1.614 -5.115,2.422 0.965,-0.696 1.93,-1.392 2.889,-2.098 4.638,-3.413 9.279,-6.854 13.353,-10.977 1.136,-1.15 2.226,-2.348 3.254,-3.6 1.016,-1.236 2.256,-2.665 2.379,-4.351 0.03,-0.415 -0.445,-0.613 -0.759,-0.447 -1.576,0.833 -3.125,1.719 -4.659,2.633 -0.356,0.174 -0.707,0.361 -1.052,0.546 -1.155,0.617 -2.267,1.314 -3.35,2.053 -2.216,1.512 -4.31,3.201 -6.442,4.834 -4.554,3.489 -9.295,6.714 -14.133,9.772 -9.897,6.256 -20.169,11.873 -30.349,17.624 l -31.998,18.0780002 c -4.808,2.7169998 -9.743,5.2879998 -13.52,9.4759998 -3.65,4.048 -6.501,8.841 -9.655,13.289 -6.366,8.98 -14.6163,21.858232 -22.6373,29.339232 -0.6883,0.805084 5.9502,3.312467 5.4794,3.42999"
           id="path62" />
        <path
           style="fill:#272525"
           d="m 1105.0697,57.954012 c 1.4312,2.050055 -44.3427,10.267456 -46.7693,11.08628 -1.22,0.46 0.7233,2.155807 -0.4377,2.758807 -1.165,0.605 -2.294,1.293 -3.383,2.033 -1.06,0.72 -2.155,1.462 -3.073,2.37 -0.491,0.485 -0.935,1.045 -1.218,1.685 -0.215,0.486 -0.4,1.082 -0.427,1.657 -0.796,0.675 -1.56,1.389 -2.069,2.327 -0.647,1.192 -0.753,2.645 -0.58,3.976 0.182,1.398 0.763,2.626 1.539,3.777 0.394,0.585 0.842,1.136 1.307,1.663 0.298,0.337 0.621,0.727 0.989,1.029 0.07,0.138 0.155,0.261 0.267,0.349 0.072,0.056 0.187,0.046 0.274,-0.002 0.014,0.007 0.028,0.015 0.043,0.021 0.085,0.036 0.138,-0.076 0.108,-0.143 -0.01,-0.016 -0.019,-0.03 -0.027,-0.046 0.063,-0.195 0.045,-0.375 0.029,-0.586 -0.019,-0.242 -0.03,-0.484 -0.047,-0.726 -0.01,-0.085 -0.018,-0.17 -0.025,-0.255 0.053,-0.121 0.076,-0.237 0.074,-0.377 -10e-4,-0.125 -0.048,-0.255 0.022,-0.35 0.08,-0.109 0.411,-0.212 0.536,-0.279 0.185,-0.099 0.368,-0.201 0.552,-0.304 0.416,-0.231 0.832,-0.463 1.248,-0.695 0.371,0.321 1.013,0.251 1.473,0.306 0.519,0.061 1.037,0.137 1.55,0.239 1.039,0.207 2.065,0.507 3.058,0.882 0.997,0.376 1.96,0.85 2.879,1.395 0.938,0.557 1.812,1.271 2.791,1.745 0.081,0.039 0.197,-0.047 0.136,-0.139 -0.078,-0.116 -0.162,-0.229 -0.25,-0.338 -0.032,-0.081 -0.075,-0.163 -0.115,-0.229 -0.069,-0.117 -0.12,-0.24 -0.177,-0.364 v 0 c 10e-4,-0.002 0,-10e-4 0,-0.005 0,-0.012 -0.022,-0.174 -0.011,-0.086 -10e-4,-0.01 0,-0.02 0,-0.029 0.013,0.002 0.03,0.006 0.043,0.009 0.028,0.007 0.057,0.014 0.085,0.021 0.056,0.014 0.112,0.027 0.168,0.04 0.044,0.02 0.089,0.038 0.132,0.059 1.096,0.506 2.159,1.076 3.226,1.643 1.103,0.587 2.222,1.142 3.331,1.717 1.088,0.564 2.17,1.154 3.284,1.656 0.101,0.046 0.253,-0.056 0.186,-0.173 -10e-4,-0.007 10e-4,-0.013 -10e-4,-0.02 -0.024,-0.076 -0.052,-0.148 -0.093,-0.216 -0.02,-0.033 -0.041,-0.066 -0.063,-0.098 v -0.006 c 0,-0.004 0,-0.011 -0.011,-0.027 -0.01,-0.025 -0.021,-0.05 -0.036,-0.073 0,-0.007 -0.01,-0.014 -0.011,-0.021 0.016,0.039 0.014,0.037 0,-0.008 0,0.005 -0.035,-0.079 -0.036,-0.079 l 0.013,0.032 -0.024,-0.06 c 0,-0.005 -0.012,-0.031 -0.022,-0.054 0,0.003 0,-0.011 -0.01,-0.023 0,0.008 0,0.011 0.01,0.015 0,-0.007 -0.01,-0.018 -0.01,-0.02 v 0.005 -0.001 c -0.01,-0.018 -0.012,-0.037 -0.018,-0.055 -0.012,-0.037 -0.021,-0.075 -0.03,-0.113 -10e-4,-0.006 -10e-4,-0.01 -10e-4,-0.016 0.052,0.036 0.107,0.07 0.154,0.105 0.256,0.191 0.517,0.372 0.784,0.548 0.514,0.34 1.032,0.674 1.558,0.994 1.052,0.64 2.121,1.251 3.203,1.836 2.205,1.192001 4.461,2.268001 6.766,3.241001 2.341,0.988 4.718,1.881 7.094,2.777 2.4,0.906 4.805,1.707 7.333,2.141 1.363,0.234 2.74,0.39 4.119,0.487 0.586,0.041 1.173,0.081 1.759,0.092 0.061,0.005 0.122,0.009 0.182,0.015 0.67,0.063 1.341,0.126 2.013,0.156 1.322,0.059 2.644,0.074 3.967,0.06 2.669,-0.028 5.336,-0.154 8,-0.312 2.646,-0.157 5.29,-0.341 7.935,-0.517 2.645,-0.176 5.291,-0.314 7.936,-0.488 1.465,-0.096 2.929,-0.246 4.387,-0.424 0.317,-0.039 0.633,-0.088 0.949,-0.131 0.025,0.004 0.051,0.004 0.078,-0.002 0.028,-0.006 0.057,-0.014 0.086,-0.021 0.201,-0.028 0.401,-0.053 0.602,-0.083 0.09,0.015 0.18,0.048 0.272,0.048 0.1,0 0.208,-0.03 0.305,-0.053 0.445,-0.104 0.882,-0.235 1.331,-0.328 0.423,-0.087 0.849,-0.159 1.277,-0.207 0.476,-0.054 0.95,-0.07 1.415,-0.194 0.31,-0.083 0.385,-0.476 0.181,-0.704 -0.111,-0.124 -0.196,-0.283 -0.274,-0.446 0.702,-0.135 1.423,0.587 1.998,0.894 0.959,0.511 1.95,0.268 2.903,-0.123 0.955,-0.393 1.861,-0.868 2.751,-1.396 0.411,-0.244 0.829,-0.46 1.261,-0.661 0.277,-0.129 0.585,-0.203 0.875,-0.307 0.192,0.05 0.385,0.1 0.577,0.146 0.532,0.128 1.052,0.289 1.592,0.377 0.545,0.089 1.093,0.162 1.642,0.218 1.086,0.111 2.18,0.152 3.271,0.121 0.546,-0.015 1.091,-0.049 1.635,-0.1 0.543,-0.051 1.085,-0.096 1.575,-0.361 0.234,-0.127 0.233,-0.508 0,-0.635 -0.025,-0.014 -0.043,-0.034 -0.064,-0.051 0.298,0.099 0.581,0.292 0.841,0.435 0.46,0.253 0.936,0.408 1.454,0.475 0.996,0.128 1.995,-0.033 2.992,-0.05 1.053,-0.017 2.096,0.091 3.128,0.306 0.799,0.167 1.981,0.537 2.634,-0.107 0.147,-0.017 0.294,-0.043 0.44,-0.059 0.289,-0.03 0.578,-0.054 0.868,-0.076 0.619,-0.046 1.24,-0.098 1.861,-0.122 1.213,-0.047 2.469,-0.118 3.674,0.07 0.574,0.09 1.119,0.307 1.692,0.395 0.52,0.079 1.087,0.058 1.587,-0.121 0.413,-0.148 0.81,-0.39 1.062,-0.767 0.058,0.007 0.116,0.017 0.174,0.022 1.429,0.117 2.807,-0.364 3.956,-1.224 0.201,-0.151 0.334,-0.512 0.089,-0.709 -0.054,-0.043 -0.106,-0.085 -0.159,-0.128 2.805,0.005 5.777,0.342 8.215,-1.26 0.194,-0.127 0.213,-0.371001 0.069,-0.544001 -0.347,-0.417 -0.704,-0.787 -1.099,-1.132 0.411,-0.136 0.825,-0.262 1.242,-0.391 0.27,-0.083 0.402,-0.465 0.174,-0.674 -0.173,-0.159 -0.265,-0.352 -0.411,-0.532 -0.018,-0.022 -0.036,-0.043 -0.054,-0.065 0.338,-0.145 0.685,-0.276 1.012,-0.444 0.507,-0.261 0.964,-0.601 1.402,-0.968 0.158,-0.132 0.116,-0.382 0,-0.52 -0.397,-0.475 -0.864,-0.867 -1.374,-1.193 1.21,-0.331 2.42,-0.714 3.578,-1.179 0.271,-0.109 0.373,-0.501 0.085,-0.669 -0.609,-0.357 -1.309,-0.574 -2.004,-0.47 -0.668,-0.12 -1.35,-0.128 -2.029,-0.161 -0.779,-0.039 -1.558,-0.076 -2.338,-0.114 -1.579,-0.077 -3.159,-0.154 -4.738,-0.23 -3.117,-0.151 -6.234,-0.303 -9.351,-0.456 -3.16,-0.156 -6.318,-0.33 -9.477,-0.507 -3.061,-0.171 -6.168,-0.203 -9.199,-0.698 -1.608,-0.263 -3.17,-0.744 -4.674,-1.379 -1.9167,-0.678135 -2.8751,-1.136235 -3.4379,-2.013027"
           id="path61"
           sodipodi:nodetypes="ccsccscsccccccccccccccsccccccscccssscccscccscccscsccccccccccccccccccssscssccscsscccsccsccccscccssccsscscccsccccccsccsccccccscccscccccscccscccccc" />
        <path
           style="fill:#272525"
           d="m 1106.7115,59.238581 c -0.906,-0.632 -16.1205,-15.217727 -17.0455,-15.821727 -0.773,-0.505 -1.596,-1.017 -2.451,-1.393 -0.117,-0.112 -0.234,-0.223 -0.35,-0.335 -1.26,-1.199 -2.57,-2.345 -3.923,-3.432 -2.712,-2.18 -5.587,-4.15 -8.624,-5.821 -0.853,-0.469 -1.715,-0.919 -2.589,-1.345 -0.805,-0.393 -1.641,-0.788 -2.508,-1.019 0.01,-0.284 0.011,-0.566 -0.024,-0.854 -0.101,-0.834 -0.585,-1.479 -1.085,-2.114 -0.475,-0.604 -0.997,-1.158 -1.58,-1.653 -0.305,-0.259 -0.618,-0.507 -0.95,-0.729 -0.07,-0.047 -0.148,-0.102 -0.231,-0.156 0,-0.403 -0.018,-0.804 -0.075,-1.197 -0.271,-1.87 -1.769,-3.495 -3.192,-4.583 -0.414,-0.316 -0.855,-0.632 -1.332,-0.839 -0.048,-0.021 -0.152,-0.064 -0.272,-0.104 0.018,-0.459 0.038,-0.917 0.04,-1.376 0,-0.556 -0.156,-1.008001 -0.538,-1.405001 -0.71,-0.737 -1.476,-1.435 -2.238,-2.115 -0.771,-0.688 -1.579,-1.349 -2.445,-1.908 -0.251,-0.162 -0.507,-0.322 -0.774,-0.453 -0.145,-0.071 -0.311,-0.161 -0.478,-0.193 0.02,-0.206 0.027,-0.4119996 -0.01,-0.6149998 -0.078,-0.462 -0.37,-0.8589998 -0.712,-1.1569998 -0.748,-0.652 -1.659,-1.153 -2.54,-1.587 -0.917,-0.451 -1.873,-0.838 -2.858,-1.104 -0.535,-0.144 -1.078,-0.265 -1.626,-0.344 -0.184,-0.027 -0.445,-0.082 -0.709,-0.109 l 0.066,-0.141 c 0.25,-0.534 0.461,-1.045 0.188,-1.618 -0.24,-0.503 -0.734,-0.887 -1.135,-1.249 -0.869,-0.785 -1.777,-1.56399999 -2.856,-2.02399999 -1.025,-0.4370001 -2.146,-0.5720001 -3.249,-0.5370001 -0.635,0.02 -1.266,0.0930000042 -1.891,0.2030001 -0.093,0.016 -0.189,0.032 -0.284,0.048 0.408,-0.5660001 0.816,-1.1440001 1.147,-1.76000001 0.635,-1.183 0.93,-2.71 0.067,-3.8629999 -0.388,-0.518 -0.93,-0.865 -1.399,-1.296 -0.458,-0.42 -0.873,-0.886 -1.323,-1.316 -0.932,-0.89 -2.242,-1.833 -3.517,-1.073 -0.477,0.285 -0.913,0.669 -1.293,1.09 0.09,-0.588 0.18,-1.176 0.285,-1.761 0.12,-0.6749995 0.286,-1.3549995 0.31,-2.0429995 0.024,-0.688 -0.148,-1.35 -0.518,-1.925 -0.343,-0.532 -0.79,-0.987 -1.214,-1.45 -1.148,-1.254 -2.269,-2.554 -3.486,-3.736 -0.169,-0.164 -0.484,-0.198 -0.648,0 -0.087,0.106 -0.17,0.216 -0.249,0.33 -0.023,-0.68 -0.053,-1.36 -0.107,-2.037 -0.099,-1.249 -0.445,-2.351 -1.221,-3.331 -0.772,-0.974 -1.816,-1.707 -2.863,-2.332 -0.207,-0.124 -0.486,-0.05 -0.608,0.163 -0.225,0.394 -0.451,0.788 -0.675,1.182 -0.032,0.057 -0.066,0.115 -0.1,0.173 -0.147,-0.293 -0.299,-0.583 -0.459,-0.863 -0.272,-0.474 -0.573,-0.93 -0.901,-1.364 -0.289,-0.382 -0.639,-0.778 -1.126,-0.87 -0.406,-0.076 -0.803,0.15 -1.005,0.51 -2.378,3.225 -4.223,6.861 -5.8,10.556 -1.587,3.719 -3.167,7.7159995 -3.197,11.8359995 -0.015,2.1009999 0.417,4.16399981 1.027,6.1599999 0.311,1.017 0.65,2.028 0.935,3.053 0.296,1.065 0.551,2.148 0.869,3.204 1.264,4.1949996 2.492,8.4050006 3.812,12.5830006 0.55,1.741 1.19,3.503 2.251,4.992 1.052,1.477 2.468,2.57 4.018,3.447 1.549,0.876 3.189,1.572 4.773,2.377 1.597,0.811 3.165,1.683 4.701,2.609 6.18,3.726 11.822,8.326 16.969,13.431 4.9345,6.375127 10.0801,14.264203 12.1803,22.312856"
           id="path4"
           sodipodi:nodetypes="csccccccccsscccscccsssccsccccsccsscccccccccsccsccccccccccccccsscscccccc" />
      </g>
    </g>
  </g>
</svg>
