<?xml version="1.0" standalone="no"?>
<svg version="1.0" xmlns="http://www.w3.org/2000/svg"
 width="225" height="225" viewBox="0 0 225 225"
 preserveAspectRatio="xMidYMid meet">
<g transform="translate(0,225) scale(0.1,-0.1)"
fill="#000000" stroke="none">
<!-- Paw print design for common animals -->
<path d="M1125 1900 c-82 -33 -125 -135 -90 -215 25 -58 65 -85 130 -85 65 0 105 27 130 85 35 80 -8 182 -90 215 -51 21 -29 21 -80 0z"/>
<path d="M625 1700 c-55 -22 -85 -78 -75 -140 10 -62 50 -100 110 -105 85 -7 140 58 130 155 -8 79 -90 121 -165 90z"/>
<path d="M1575 1700 c-55 -22 -85 -78 -75 -140 10 -62 50 -100 110 -105 85 -7 140 58 130 155 -8 79 -90 121 -165 90z"/>
<path d="M475 1350 c-55 -22 -85 -78 -75 -140 10 -62 50 -100 110 -105 85 -7 140 58 130 155 -8 79 -90 121 -165 90z"/>
<path d="M1725 1350 c-55 -22 -85 -78 -75 -140 10 -62 50 -100 110 -105 85 -7 140 58 130 155 -8 79 -90 121 -165 90z"/>
<path d="M1125 1200 c-150 -30 -275 -150 -315 -300 -20 -75 -20 -200 0 -275 40 -150 165 -270 315 -300 150 30 275 150 315 300 20 75 20 200 0 275 -40 150 -165 270 -315 300z"/>
</g>
</svg>
