<?xml version="1.0" standalone="no"?>
<svg version="1.0" xmlns="http://www.w3.org/2000/svg"
 width="225" height="225" viewBox="0 0 225 225"
 preserveAspectRatio="xMidYMid meet">
<g transform="translate(0,225) scale(0.1,-0.1)"
fill="#000000" stroke="none">
<path d="M633 1969 c49 -130 69 -215 62 -262 -6 -38 -3 -46 21 -70 l27 -27 -24
-26 c-22 -24 -24 -33 -23 -127 2 -104 21 -212 49 -270 15 -30 15 -31 0 -12
-85 104 -205 443 -205 578 0 20 -4 37 -10 37 -5 0 -10 15 -10 34 0 86 47 232
72 224 7 -3 25 -38 41 -79z"/>
<path d="M1697 1988 c26 -65 42 -198 24 -198 -6 0 -11 -15
-11 -34 0 -51 -35 -212 -65 -296 -32 -89 -122 -275 -141 -291 -9 -8 -7 4 6 33
27 61 53 220 48 295 -3 48 -9 68 -28 87 l-23 26 27 27 c25 25 27 32 21 78 -5
42 0 69 29 155 46 141 65 182 79 177 7 -2 22 -29 34 -59z"/>
<path d="M454 1946 c33 -14 34 -16 29 -58 -2 -23 -9 -55 -15 -70 -7 -19 -6 -35 5 -60 36 -84 55 -138 48
-138 -4 0 -23 17 -43 38 -44 45 -88 130 -87 169 0 15 0 47 -1 71 -1 66 7 72
64 48z"/>
<path d="M910 1924 c10 -10 5 -24 -19 -63 -65 -107 -75 -203 -37 -363 22 -94 -6
-73 -69 53 -62 124 -67 158 -40 283 15 73 42 112 79 118 27 5 72 -10 86 -28z"/>
<path d="M1467 1928 c29 -27 47 -105 47 -203 1 -75 -2 -85 -43 -165 -69 -135 -95 -156 -74
-57 36 169 27 254 -38 360 -16 26 -27 53 -23 59 11 17 68 37 89 31 11 -3 30
-14 42 -25z"/>
<path d="M1848 1946 c4 -16 4 -30 -1 -33 -4 -3 -6 -23 -3 -44 9 -65 -58 -189
-120 -222 -16 -9 -16 -6 3 28 11 21 20 45 20 54 0 9 7 30 16 48 12 24 14 38 6
59 -6 15 -13 47 -15 70 -5 41 -4 44 26 58 43 18 59 14 68 -18z"/>
<path d="M981 1867 c-40 -79 -45 -108 -28 -165 8 -29 13 -54 11 -56 -13 -14 -61 -2 -78 19 -15 19 -18
33 -12 73 3 27 12 61 20 76 15 29 94 104 102 97 2 -3 -4 -22 -15 -44z"/>
<path d="M1310 1867 c43 -46 57 -75 65 -130 6 -47 4 -54 -20 -78 -20 -19 -32 -24 -49 -19 -12 3
-23 7 -24 8 -1 1 4 24 13 51 17 57 12 89 -22 158 -13 27 -24 51 -24 53 0 10
36 -16 61 -43z"/>
<path d="M1080 1719 c22 -53 21 -94 -2 -106 -46 -25 -88 13 -103 93 -7
37 -2 50 43 123 l26 40 12 -60 c7 -33 18 -73 24 -90z"/>
<path d="M1250 1797 c27 -45 31 -61 25 -92 -15 -80 -57 -118 -103 -93 -24 13 -23 51 1 118 9 23 19 62 22 87 4 25
11 43 16 41 4 -3 22 -30 39 -61z"/>
<path d="M530 1673 c12 -8 12 -10 1 -10 -20 0 -8 -96
18 -149 12 -22 18 -41 14 -41 -12 0 -72 71 -99 118 -22 37 -24 48 -15 68 11
26 52 33 81 14z"/>
<path d="M1721 1673 c9 -20 7 -31 -16 -70 -50 -86 -120 -143 -80 -66 23
45 33 140 14 140 -11 0 -11 2 1 10 29 19 70 12 81 -14z"/>
<path d="M230 877 c-25 -48
-41 -128 -29 -136 16 -10 -1 -24 -30 -24 -77 0 -65 63 32 168 42 43 52 40 27
-8z"/>
<path d="M2020 885 c46 -50 84 -105 84 -122 0 -31 -13 -46 -39 -46 -31 0 -58 15 -43
24 15 9 4 62 -23 124 -27 60 -21 66 21 20z"/>
<path d="M194 693 c-4 -64 5 -124 18
-124 6 0 10 15 10 34 0 37 19 100 28 92 3 -3 7 -21 9 -38 2 -18 6 -40 10 -48
4 -8 7 -30 8 -49 2 -22 11 -42 26 -56 27 -24 69 -80 69 -92 0 -4 -11 -21 -24
-38 l-24 -30 -26 24 c-15 14 -25 29 -23 34 2 6 -7 20 -20 33 -13 13 -23 33
-23 46 0 13 -3 33 -6 44 -5 19 -9 20 -35 11 -24 -9 -32 -8 -46 6 -15 15 -16
23 -4 78 12 60 39 129 50 129 3 0 4 -25 3 -56z"/>
<path d="M2055 621 c12 -56 11 -64 -4
-79 -14 -14 -22 -15 -47 -6 l-29 11 -7 -46 c-4 -27 -16 -55 -29 -68 -13 -13
-20 -25 -17 -28 3 -4 -5 -17 -18 -31 -18 -19 -27 -22 -42 -14 -10 6 -24 21
-30 34 -8 19 -6 29 13 56 13 18 35 43 48 54 17 15 24 32 23 56 0 18 3 39 9 45
5 6 10 30 11 53 1 22 5 41 9 41 11 0 29 -59 29 -96 0 -19 4 -34 9 -34 14 0 21
38 21 115 l1 70 19 -35 c10 -20 24 -64 31 -98z"/>
<path d="M600 627 c17 -169 46 -238 132
-317 l57 -52 -28 -30 c-22 -22 -38 -29 -65 -29 -47 0 -78 32 -122 125 -28 60
-33 80 -33 145 1 77 30 230 44 230 5 0 12 -33 15 -72z"/>
<path d="M1600 622 c10 -43 18
-114 18 -158 0 -71 -4 -87 -34 -145 -46 -91 -76 -120 -121 -120 -27 0 -43 7
-64 29 l-28 29 70 69 c80 79 95 114 115 276 6 53 15 97 19 97 3 0 15 -35 25
-77z"/>
<path d="M912 424 c0 -36 3 -70 6 -74 3 -5 9 -40 14 -77 9 -75 3 -93 -35 -93
-31 0 -43 26 -51 105 -5 57 -2 75 22 135 16 39 31 70 35 70 5 0 8 -30 9 -66z"/>
<path d="M1067 425 c28 -71 32 -134 12 -200 -8 -29 -18 -41 -34 -43 -50 -7 -57 26 -31 148
5 25 10 71 11 103 1 31 5 57 9 57 4 0 19 -29 33 -65z"/>
</g>
</svg>
