<?xml version="1.0" standalone="no"?>
<svg version="1.0" xmlns="http://www.w3.org/2000/svg"
 width="225" height="225" viewBox="0 0 225 225"
 preserveAspectRatio="xMidYMid meet">
<g transform="translate(0,225) scale(0.1,-0.1)"
fill="#000000" stroke="none">
<path d="M1350 2140 c243 -50 423 -201 483 -407 38 -129 27 -285 -29 -395 -26
-52 -34 -57 -55 -31 -26 31 -91 53 -159 53 -104 0 -189 -50 -229 -134 l-21
-43 38 -64 c192 -316 228 -577 121 -871 -12 -32 -25 -58 -29 -58 -4 0 -36 48
-73 108 l-66 107 17 70 c11 49 16 121 16 235 0 141 -3 178 -23 255 -13 50 -25
91 -26 93 -2 2 -20 -4 -40 -12 -29 -12 -36 -20 -30 -33 16 -44 35 -145 41
-229 13 -173 -30 -400 -105 -558 l-39 -81 -40 85 c-115 240 -140 517 -68 732
l23 69 -28 15 c-15 8 -33 14 -38 14 -16 0 -59 -148 -72 -246 -13 -99 -7 -231
16 -337 l14 -69 -66 -109 c-36 -60 -69 -109 -74 -109 -7 0 -50 115 -69 185
-18 70 -24 228 -11 310 22 134 81 283 169 429 l42 69 -21 43 c-40 83 -125 133
-227 134 -75 0 -124 -19 -174 -67 l-36 -35 -26 39 c-66 100 -92 260 -62 387
44 185 183 339 376 416 152 61 398 78 580 40z"/>
<path d="M763 1266 c18 -7 45 -27 61
-44 l28 -31 -36 -60 c-20 -33 -50 -89 -66 -125 -29 -63 -32 -66 -65 -66 -47 0
-108 32 -136 71 -23 33 -36 110 -25 153 9 35 54 86 91 102 39 17 108 17 148 0z"/>
<path d="M1688 1253 c15 -11 38 -35 50 -54 32 -45 28 -138 -7 -187 -28 -40 -89 -72 -136
-72 -33 0 -37 3 -59 54 -13 30 -43 87 -66 126 l-42 72 29 30 c15 17 42 37 58
44 43 20 138 13 173 -13z"/>
<path d="M665 860 c20 0 25 -4 21 -17 -20 -66 -37 -162
-42 -246 l-7 -98 -70 -64 c-38 -36 -73 -65 -78 -65 -29 0 25 374 70 492 10 27
11 27 45 13 20 -8 47 -15 61 -15z"/>
<path d="M1739 789 c39 -142 68 -419 43 -419 -4 0
-37 30 -74 68 l-66 67 -6 95 c-5 81 -22 178 -42 243 -4 13 1 17 23 17 15 1 42
7 58 14 36 16 37 15 64 -85z"/>
</g>
</svg>
