<?xml version="1.0" encoding="UTF-8"?>
<svg version="1.1" xmlns="http://www.w3.org/2000/svg" width="192" height="152">
<path d="M0 0 C63.36 0 126.72 0 192 0 C192 50.16 192 100.32 192 152 C128.64 152 65.28 152 0 152 C0 101.84 0 51.68 0 0 Z " fill="#F3F3F3" transform="translate(0,0)"/>
<path d="M0 0 C32.01 0 64.02 0 97 0 C97 7.26 97 14.52 97 22 C94.21399498 16.42798997 93.87829967 12.2067169 94 6 C93.34 6 92.68 6 92 6 C92.00523682 6.61818604 92.01047363 7.23637207 92.01586914 7.87329102 C92.26714468 42.14536661 92.26714468 42.14536661 87.86328125 50.6328125 C85.15108838 58.06986626 86.65832601 67.20784147 88.5625 74.71875 C89.79719995 81.15682832 88.24076747 86.25948691 86.1875 92.3125 C85.79594727 93.54709961 85.79594727 93.54709961 85.39648438 94.80664062 C85.00493164 95.97936523 85.00493164 95.97936523 84.60546875 97.17578125 C84.25198364 98.24179565 84.25198364 98.24179565 83.89135742 99.3293457 C83 101 83 101 80 102 C80 102.66 80 103.32 80 104 C78.91460937 104.31453125 77.82921875 104.6290625 76.7109375 104.953125 C75.26546723 105.38488885 73.82016343 105.81721025 72.375 106.25 C71.66214844 106.45496094 70.94929688 106.65992187 70.21484375 106.87109375 C64.50113813 108.60093123 58.68411686 110.78129972 55.6875 116.3125 C53.84398001 119.84655077 53.32257392 123.04846949 53 127 C53.99 127.66 54.98 128.32 56 129 C56.33 127.35 56.66 125.7 57 124 C62.4185766 123.77422598 66.77487721 124.53329887 72 126 C71.50846389 130.16860435 69.35346395 131.78853743 66.25 134.4375 C63.48014958 136.83751243 60.81388737 139.19034246 58.25 141.8125 C53.31711001 146.60836527 48.926808 148.61727367 42.125 149.25 C41.43664063 149.32734375 40.74828125 149.4046875 40.0390625 149.484375 C38.36093135 149.67083402 36.68062012 149.83749729 35 150 C35 150.66 35 151.32 35 152 C23.45 152 11.9 152 0 152 C0 101.84 0 51.68 0 0 Z " fill="#F7F7F7" transform="translate(0,0)"/>
<path d="M0 0 C5.94 0 11.88 0 18 0 C18 6.6 18 13.2 18 20 C18.45375 18.370625 18.9075 16.74125 19.375 15.0625 C20.1484375 12.28515625 20.1484375 12.28515625 21 10 C21.66 9.67 22.32 9.34 23 9 C23.10349817 15.41688675 22.74507544 21.62694402 22 28 C22.26554687 27.14535156 22.53109375 26.29070313 22.8046875 25.41015625 C23.15789062 24.30542969 23.51109375 23.20070313 23.875 22.0625 C24.22304687 20.96035156 24.57109375 19.85820312 24.9296875 18.72265625 C26 16 26 16 28 15 C27.9278125 15.59425781 27.855625 16.18851563 27.78125 16.80078125 C27.06182721 23.22562641 26.88944165 29.53847873 27 36 C27.66 36 28.32 36 29 36 C29.06058594 36.85464844 29.12117188 37.70929687 29.18359375 38.58984375 C29.26738281 39.69457031 29.35117188 40.79929688 29.4375 41.9375 C29.51871094 43.03964844 29.59992188 44.14179687 29.68359375 45.27734375 C29.70418084 47.91109903 29.70418084 47.91109903 31 49 C31.07243484 52.36822026 30.99607941 55.72543392 30.9375 59.09375 C30.66248366 61.89306374 30.66248366 61.89306374 32 63 C32 65.02737762 31.99384936 67.05486113 31.96484375 69.08203125 C32.00616528 72.51171831 32.28494177 75.89396637 32.5625 79.3125 C33.07685495 86.51346933 33.34090599 93.9764609 31.4609375 101.01953125 C30.90988221 103.38720102 30.93270968 105.57754865 31 108 C31.79921875 107.9278125 32.5984375 107.855625 33.421875 107.78125 C40.97042127 107.14334468 48.4261308 106.8771805 56 107 C56 107.99 56 108.98 56 110 C57.98 110.99 57.98 110.99 60 112 C59.5359375 112.86625 59.5359375 112.86625 59.0625 113.75 C58.07416636 115.84294184 57.4831387 117.74535275 57 120 C56.34 120 55.68 120 55 120 C55.33 121.65 55.66 123.3 56 125 C54.35 125 52.7 125 51 125 C51 126.32 51 127.64 51 129 C49.68 129 48.36 129 47 129 C47 129.99 47 130.98 47 132 C44.69 132 42.38 132 40 132 C40 133.32 40 134.64 40 136 C38.35 136 36.7 136 35 136 C34.9175 136.78375 34.835 137.5675 34.75 138.375 C34 141 34 141 31.953125 142.1640625 C31.30859375 142.43992188 30.6640625 142.71578125 30 143 C28.66094733 141.2126038 27.32890934 139.41995047 26 137.625 C25.2575 136.62726563 24.515 135.62953125 23.75 134.6015625 C22 132 22 132 22 130 C17.6757325 130.49139403 15.34920977 131.27876707 12 134 C11.030625 134.45375 10.06125 134.9075 9.0625 135.375 C5.87504903 136.87451789 5.87504903 136.87451789 3.4375 139.5625 C1 142 1 142 -1.375 142.9375 C-4.62479696 144.25289401 -6.6981769 146.2015491 -9.25390625 148.5625 C-12.65107012 151.35927025 -15.38324414 152.25062772 -19.76855469 152.22705078 C-20.70922791 152.22689972 -21.64990112 152.22674866 -22.61907959 152.22659302 C-24.13021332 152.21110916 -24.13021332 152.21110916 -25.671875 152.1953125 C-26.70942932 152.1924826 -27.74698364 152.18965271 -28.815979 152.18673706 C-32.12743701 152.17554865 -35.43862384 152.15044627 -38.75 152.125 C-40.99608984 152.11496848 -43.24218393 152.10584293 -45.48828125 152.09765625 C-50.99227991 152.0756137 -56.49612058 152.04214932 -62 152 C-62 151.34 -62 150.68 -62 150 C-58.64188169 148.32094084 -55.8744511 147.90338626 -52.1875 147.75 C-47.11184499 147.36306666 -44.37888643 145.57382527 -40.59375 142.27734375 C-39 141 -39 141 -37 141 C-36.76410156 140.42378906 -36.52820313 139.84757813 -36.28515625 139.25390625 C-34.7196108 136.50825359 -32.86080999 134.9562767 -30.4375 132.9375 C-26.88105236 130.06425553 -26.88105236 130.06425553 -25 126 C-29.95 125.34 -34.9 124.68 -40 124 C-40.33 125.65 -40.66 127.3 -41 129 C-42.32 128.34 -43.64 127.68 -45 127 C-44.72186186 120.46375362 -42.35828852 115.87938824 -38 111 C-35.47683382 109.16063306 -32.92883114 108.05246564 -30 107 C-29.21753906 106.70351562 -28.43507812 106.40703125 -27.62890625 106.1015625 C-23.7998105 104.73088455 -21.1355709 104 -17 104 C-17 103.34 -17 102.68 -17 102 C-16.56171875 101.6184375 -16.1234375 101.236875 -15.671875 100.84375 C-13.20795083 98.12652522 -12.32277039 94.93804965 -11.25 91.5 C-10.91524658 90.43011841 -10.91524658 90.43011841 -10.57373047 89.33862305 C-8.56720945 82.40778453 -8.96275007 76.61084093 -10.53515625 69.62109375 C-11.09360683 66.47218331 -11.24499129 63.44778081 -11.3125 60.25 C-11.36857422 58.52523437 -11.36857422 58.52523437 -11.42578125 56.765625 C-11.03343598 53.29570903 -10.64016014 52.15803153 -9.05859375 49.26953125 C-5.41677846 41.66872857 -6.04246872 32.69897977 -5.75 24.4375 C-5.67351487 22.64771563 -5.59540435 20.85799993 -5.515625 19.06835938 C-5.32497574 14.71280664 -5.15643289 10.35691033 -5 6 C-4.34 6 -3.68 6 -3 6 C-2.34 9.96 -1.68 13.92 -1 18 C-0.67 12.06 -0.34 6.12 0 0 Z " fill="#030303" transform="translate(97,0)"/>
<path d="M0 0 C0.33 0 0.66 0 1 0 C1.50579714 3.04080421 2.00480759 6.08246646 2.5 9.125 C2.64308594 9.9809375 2.78617188 10.836875 2.93359375 11.71875 C3.65695734 16.19671505 4.17918816 20.44563435 4 25 C3.4225 24.319375 2.845 23.63875 2.25 22.9375 C0.21734735 20.7334804 0.21734735 20.7334804 -2.1875 21.125 C-4.18560131 21.86199248 -4.18560131 21.86199248 -5 24 C-5 23.01 -5 22.02 -5 21 C-4.34 21 -3.68 21 -3 21 C-2.67 19.02 -2.34 17.04 -2 15 C-1.34 15 -0.68 15 0 15 C0.33 13.35 0.66 11.7 1 10 C-0.65 10 -2.3 10 -4 10 C-3.9175 10.86625 -3.835 11.7325 -3.75 12.625 C-4.05873377 16.79290588 -5.39760579 18.78527774 -8 22 C-8.66 22 -9.32 22 -10 22 C-10.28875 22.639375 -10.5775 23.27875 -10.875 23.9375 C-12 26 -12 26 -14 27 C-13.3506938 23.49374651 -11.82074633 21.03457721 -10 18 C-9.30420546 15.80869466 -9.30420546 15.80869466 -9 14 C-9.99 13.67 -10.98 13.34 -12 13 C-10.68 11.35 -9.36 9.7 -8 8 C-10.97 8 -13.94 8 -17 8 C-17 8.66 -17 9.32 -17 10 C-17.66 10 -18.32 10 -19 10 C-19 9.34 -19 8.68 -19 8 C-23.49080001 10.67309525 -26.48368163 13.48987219 -29.703125 17.609375 C-30.13109375 18.06828125 -30.5590625 18.5271875 -31 19 C-31.66 19 -32.32 19 -33 19 C-33 19.66 -33 20.32 -33 21 C-31.68 20.67 -30.36 20.34 -29 20 C-29 20.66 -29 21.32 -29 22 C-26.69 22.33 -24.38 22.66 -22 23 C-22.33 23.66 -22.66 24.32 -23 25 C-24.11375 24.95875 -25.2275 24.9175 -26.375 24.875 C-30.04366025 24.58878141 -30.04366025 24.58878141 -32 27 C-32.33 26.01 -32.66 25.02 -33 24 C-34.45293137 25.22106092 -34.45293137 25.22106092 -34.0625 28.875 C-34.04474114 30.25004315 -34.02407495 31.62505294 -34 33 C-34 33.99 -34 34.98 -34 36 C-35.32 35.67 -36.64 35.34 -38 35 C-39.81975482 29.87160006 -37.8599099 25.82315618 -36 21 C-36.66 20.67 -37.32 20.34 -38 20 C-38 20.66 -38 21.32 -38 22 C-38.66 22 -39.32 22 -40 22 C-40.061875 22.886875 -40.12375 23.77375 -40.1875 24.6875 C-41.18171055 28.74081992 -42.90101124 30.29831749 -46 33 C-46.66 32.67 -47.32 32.34 -48 32 C-47.67 30.68 -47.34 29.36 -47 28 C-46.34 28 -45.68 28 -45 28 C-44.67 26.35 -44.34 24.7 -44 23 C-43.34 23 -42.68 23 -42 23 C-41.896875 22.46375 -41.79375 21.9275 -41.6875 21.375 C-40.81907303 18.37497956 -39.44379704 15.7620465 -38 13 C-40.31 12.67 -42.62 12.34 -45 12 C-45 12.66 -45 13.32 -45 14 C-46.98 14.33 -48.96 14.66 -51 15 C-49.21913825 11.74740722 -48.18466879 11.05630402 -44.56640625 9.953125 C-43.2348423 9.70188652 -41.89990993 9.46798628 -40.5625 9.25 C-39.89412109 9.12496094 -39.22574219 8.99992187 -38.53710938 8.87109375 C-35.28497954 8.28448559 -32.31677587 8 -29 8 C-29 8.66 -29 9.32 -29 10 C-29.804375 10.2475 -30.60875 10.495 -31.4375 10.75 C-34.171081 11.72238859 -34.171081 11.72238859 -34.8125 14.125 C-34.9053125 15.053125 -34.9053125 15.053125 -35 16 C-35.66 16 -36.32 16 -37 16 C-37 16.66 -37 17.32 -37 18 C-35.68 18 -34.36 18 -33 18 C-32.7525 17.443125 -32.505 16.88625 -32.25 16.3125 C-29.70246725 11.59956441 -26.90349326 8.23939062 -22 6 C-18.71929588 5.64264479 -15.48249409 5.71667243 -12.1875 5.8125 C-10.86202148 5.83280273 -10.86202148 5.83280273 -9.50976562 5.85351562 C-7.33957977 5.88870783 -5.16970967 5.94251015 -3 6 C-2.67 5.34 -2.34 4.68 -2 4 C-2 4.66 -2 5.32 -2 6 C-1.34 6 -0.68 6 0 6 C0 4.02 0 2.04 0 0 Z " fill="#E9E9E9" transform="translate(85,58)"/>
<path d="M0 0 C5.4185766 -0.22577402 9.77487721 0.53329887 15 2 C14.50846389 6.16860435 12.35346395 7.78853743 9.25 10.4375 C6.48014958 12.83751243 3.81388737 15.19034246 1.25 17.8125 C-2.68637559 21.63953182 -5.76704473 24.24010943 -11.375 24.25 C-12.57125 24.1675 -13.7675 24.085 -15 24 C-12.35261084 22.5393715 -11.10551666 22 -8 22 C-8 21.34 -8 20.68 -8 20 C-7.34 20 -6.68 20 -6 20 C-6 19.34 -6 18.68 -6 18 C-5.01 18 -4.02 18 -3 18 C-3 17.34 -3 16.68 -3 16 C-1.625 14.375 -1.625 14.375 0 13 C0.66 13 1.32 13 2 13 C2 12.34 2 11.68 2 11 C-1.3 11 -4.6 11 -8 11 C-7.625 8.5625 -7.625 8.5625 -7 6 C-6.34 5.67 -5.68 5.34 -5 5 C-4.67 4.34 -4.34 3.68 -4 3 C-3.01 3.66 -2.02 4.32 -1 5 C-0.67 3.35 -0.34 1.7 0 0 Z " fill="#ECECEC" transform="translate(57,124)"/>
<path d="M0 0 C0.33 0 0.66 0 1 0 C1.50579714 3.04080421 2.00480759 6.08246646 2.5 9.125 C2.64308594 9.9809375 2.78617188 10.836875 2.93359375 11.71875 C3.65695734 16.19671505 4.17918816 20.44563435 4 25 C3.4225 24.319375 2.845 23.63875 2.25 22.9375 C0.21734735 20.7334804 0.21734735 20.7334804 -2.1875 21.125 C-4.18560131 21.86199248 -4.18560131 21.86199248 -5 24 C-5 23.01 -5 22.02 -5 21 C-4.34 21 -3.68 21 -3 21 C-2.67 19.02 -2.34 17.04 -2 15 C-1.34 15 -0.68 15 0 15 C0.33 13.35 0.66 11.7 1 10 C-0.65 10 -2.3 10 -4 10 C-3.87625 11.299375 -3.87625 11.299375 -3.75 12.625 C-4.05873377 16.79290588 -5.39760579 18.78527774 -8 22 C-8.66 22 -9.32 22 -10 22 C-10.28875 22.639375 -10.5775 23.27875 -10.875 23.9375 C-12 26 -12 26 -14 27 C-13.3506938 23.49374651 -11.82074633 21.03457721 -10 18 C-9.30420546 15.80869466 -9.30420546 15.80869466 -9 14 C-9.99 13.67 -10.98 13.34 -12 13 C-10.68 11.35 -9.36 9.7 -8 8 C-10.97 8 -13.94 8 -17 8 C-17 8.66 -17 9.32 -17 10 C-17.66 10 -18.32 10 -19 10 C-19 9.34 -19 8.68 -19 8 C-20.65 8.66 -22.3 9.32 -24 10 C-24.33 9.34 -24.66 8.68 -25 8 C-20.37183267 5.64417935 -16.24465865 5.76478531 -11.1875 5.875 C-10.00510742 5.88853516 -10.00510742 5.88853516 -8.79882812 5.90234375 C-6.86575334 5.92577496 -4.9328362 5.96164162 -3 6 C-2.67 5.34 -2.34 4.68 -2 4 C-2 4.66 -2 5.32 -2 6 C-1.34 6 -0.68 6 0 6 C0 4.02 0 2.04 0 0 Z " fill="#EDEDED" transform="translate(85,58)"/>
<path d="M0 0 C0.68359375 1.671875 0.68359375 1.671875 1 4 C-0.21484375 6.578125 -0.21484375 6.578125 -1.9375 9.25 C-2.50339844 10.14203125 -3.06929687 11.0340625 -3.65234375 11.953125 C-4.09707031 12.62859375 -4.54179687 13.3040625 -5 14 C-4.37609375 13.37609375 -3.7521875 12.7521875 -3.109375 12.109375 C-1.40625 10.40625 0.296875 8.703125 2 7 C3 9 3 9 2.50390625 11.12890625 C1.52140943 13.66872168 0.60681358 15.79440067 -1 18 C-3.87633472 19.13957642 -5.8386323 19.05268946 -9 19 C-9 18.34 -9 17.68 -9 17 C-11.33075929 17.95865509 -11.33075929 17.95865509 -13 21 C-16.07173215 16.39240177 -16.33884119 11.37188833 -15.5625 5.9375 C-15.376875 5.298125 -15.19125 4.65875 -15 4 C-14.67 4 -14.34 4 -14 4 C-14 5.65 -14 7.3 -14 9 C-12.35 8.67 -10.7 8.34 -9 8 C-8.01 9.485 -8.01 9.485 -7 11 C-6.01 9.02 -5.02 7.04 -4 5 C-3.34 5 -2.68 5 -2 5 C-1.34 3.35 -0.68 1.7 0 0 Z " fill="#E3E3E3" transform="translate(144,59)"/>
<path d="M0 0 C0.66 0.99 1.32 1.98 2 3 C2.33 3.33 2.66 3.66 3 4 C3 4.66 3 5.32 3 6 C35.01 6.33 67.02 6.66 100 7 C100 7.33 100 7.66 100 8 C63.7 8 27.4 8 -10 8 C-8.68 7.01 -7.36 6.02 -6 5 C-4.90989733 4.1124164 -3.8259065 3.21723956 -2.75 2.3125 C-1.8425 1.549375 -0.935 0.78625 0 0 Z " fill="#E6E6E6" transform="translate(92,144)"/>
<path d="M0 0 C1.32 0.33 2.64 0.66 4 1 C3.67 1.33 3.34 1.66 3 2 C2.9175 3.27875 2.835 4.5575 2.75 5.875 C2.32852726 9.73043917 2.32852726 9.73043917 -0.4375 12 C-3 13 -3 13 -5 13 C-5.33 12.34 -5.66 11.68 -6 11 C-6.99 11.33 -7.98 11.66 -9 12 C-9.33 11.01 -9.66 10.02 -10 9 C-11.32 9 -12.64 9 -14 9 C-13.1875 6.5625 -13.1875 6.5625 -12 4 C-11.01 3.67 -10.02 3.34 -9 3 C-9 2.34 -9 1.68 -9 1 C-7.35 1 -5.7 1 -4 1 C-3.67 1.66 -3.34 2.32 -3 3 C-2.34 3 -1.68 3 -1 3 C-0.67 2.01 -0.34 1.02 0 0 Z " fill="#EBEBEB" transform="translate(161,63)"/>
<path d="M0 0 C0.33 0 0.66 0 1 0 C1.50579714 3.04080421 2.00480759 6.08246646 2.5 9.125 C2.64308594 9.9809375 2.78617188 10.836875 2.93359375 11.71875 C3.65695734 16.19671505 4.17918816 20.44563435 4 25 C3.4225 24.319375 2.845 23.63875 2.25 22.9375 C0.21734735 20.7334804 0.21734735 20.7334804 -2.1875 21.125 C-4.18560131 21.86199248 -4.18560131 21.86199248 -5 24 C-5 23.01 -5 22.02 -5 21 C-4.34 21 -3.68 21 -3 21 C-2.67 19.02 -2.34 17.04 -2 15 C-1.34 15 -0.68 15 0 15 C0.33 13.35 0.66 11.7 1 10 C-1.64 9.67 -4.28 9.34 -7 9 C-7 8.34 -7 7.68 -7 7 C-10.3 7 -13.6 7 -17 7 C-17 6.67 -17 6.34 -17 6 C-12.38 6 -7.76 6 -3 6 C-2.67 5.34 -2.34 4.68 -2 4 C-2 4.66 -2 5.32 -2 6 C-1.34 6 -0.68 6 0 6 C0 4.02 0 2.04 0 0 Z " fill="#D5D5D5" transform="translate(85,58)"/>
<path d="M0 0 C2.97 0 5.94 0 9 0 C8.67 1.32 8.34 2.64 8 4 C7.34 4 6.68 4 6 4 C6.3403125 5.175625 6.3403125 5.175625 6.6875 6.375 C7.11022661 11.2786287 5.92937087 15.48680205 4 20 C3.34 20.33 2.68 20.66 2 21 C2.33 14.73 2.66 8.46 3 2 C1.68 6.29 0.36 10.58 -1 15 C-1.33 15 -1.66 15 -2 15 C-1.85930804 12.87465341 -1.71229079 10.74972471 -1.5625 8.625 C-1.48128906 7.44164062 -1.40007812 6.25828125 -1.31640625 5.0390625 C-1 2 -1 2 0 0 Z " fill="#D3D3D3" transform="translate(116,8)"/>
<path d="M0 0 C0.66 0 1.32 0 2 0 C1.71640113 1.4391134 1.42278601 2.87625518 1.125 4.3125 C0.96257812 5.11300781 0.80015625 5.91351563 0.6328125 6.73828125 C0 9 0 9 -2 12 C-2.66 12 -3.32 12 -4 12 C-4 12.66 -4 13.32 -4 14 C-6.31 14.33 -8.62 14.66 -11 15 C-10.67 13.35 -10.34 11.7 -10 10 C-9.34 10 -8.68 10 -8 10 C-7.67 9.34 -7.34 8.68 -7 8 C-6.01 7.34 -5.02 6.68 -4 6 C-2.9590934 4.35857037 -1.95495674 2.69287785 -1 1 C-0.67 0.67 -0.34 0.34 0 0 Z " fill="#E8E8E8" transform="translate(84,90)"/>
<path d="M0 0 C0.99 0.33 1.98 0.66 3 1 C3.25 7.625 3.25 7.625 1 11 C0.01 11 -0.98 11 -2 11 C-2.33 11.66 -2.66 12.32 -3 13 C-5 12 -5 12 -5.6328125 10.15234375 C-5.79523438 9.42144531 -5.95765625 8.69054687 -6.125 7.9375 C-6.29257813 7.20402344 -6.46015625 6.47054687 -6.6328125 5.71484375 C-6.75398438 5.14894531 -6.87515625 4.58304687 -7 4 C-4.69 3.34 -2.38 2.68 0 2 C0 1.34 0 0.68 0 0 Z " fill="#EAEAEA" transform="translate(85,77)"/>
<path d="M0 0 C1.98 0 3.96 0 6 0 C5.01 7.26 4.02 14.52 3 22 C2.34 22 1.68 22 1 22 C0.67 14.74 0.34 7.48 0 0 Z " fill="#CFCFCF" transform="translate(107,0)"/>
<path d="M0 0 C0.66 0.33 1.32 0.66 2 1 C1.34 1.66 0.68 2.32 0 3 C-0.71927295 5.31765729 -1.3909893 7.65095874 -2 10 C-0.02 10.66 1.96 11.32 4 12 C4 12.33 4 12.66 4 13 C2.02 13 0.04 13 -2 13 C-2.33 14.65 -2.66 16.3 -3 18 C-4.32 17.34 -5.64 16.68 -7 16 C-6.71601983 9.32646591 -3.92194468 5.28922815 0 0 Z " fill="#1A1A1A" transform="translate(59,111)"/>
<path d="M0 0 C2.97 0.495 2.97 0.495 6 1 C5.67 2.65 5.34 4.3 5 6 C4.34 6 3.68 6 3 6 C2.938125 6.928125 2.87625 7.85625 2.8125 8.8125 C2 12 2 12 -0.5625 13.875 C-1.7690625 14.431875 -1.7690625 14.431875 -3 15 C-2.54171792 12.32668786 -2.00162068 10.00381336 -0.9375 7.5 C0.06664944 4.82226817 0.16195541 2.83421974 0 0 Z " fill="#F1F1F1" transform="translate(80,67)"/>
<path d="M0 0 C0.33 0 0.66 0 1 0 C1.12036664 5.77759884 0.8320582 11.27959989 0 17 C-0.66 16.01 -1.32 15.02 -2 14 C-2.474375 14.495 -2.94875 14.99 -3.4375 15.5 C-5 17 -5 17 -6 17 C-6 15.35 -6 13.7 -6 12 C-5.34 11.67 -4.68 11.34 -4 11 C-3.12606483 8.68858179 -3.12606483 8.68858179 -2.4375 6 C-1.09197652 1.09197652 -1.09197652 1.09197652 0 0 Z " fill="#151515" transform="translate(119,9)"/>
<path d="M0 0 C1.32 0 2.64 0 4 0 C3.88608368 2.60508636 3.75934452 5.20845546 3.625 7.8125 C3.5940625 8.55048828 3.563125 9.28847656 3.53125 10.04882812 C3.32653852 13.81893115 3.13566173 15.79650741 1 19 C0.67 12.73 0.34 6.46 0 0 Z " fill="#CCCCCC" transform="translate(100,0)"/>
<path d="M0 0 C0.66 0 1.32 0 2 0 C2 5.61 2 11.22 2 17 C-2.15756379 11.80304527 -2.66005641 11.16052653 -2 5 C-1 2.0625 -1 2.0625 0 0 Z " fill="#212121" transform="translate(113,0)"/>
<path d="M0 0 C0.33 0 0.66 0 1 0 C1.33 4.29 1.66 8.58 2 13 C1.67 12.01 1.34 11.02 1 10 C-1.64 9.67 -4.28 9.34 -7 9 C-7 8.34 -7 7.68 -7 7 C-10.3 7 -13.6 7 -17 7 C-17 6.67 -17 6.34 -17 6 C-12.38 6 -7.76 6 -3 6 C-2.67 5.34 -2.34 4.68 -2 4 C-2 4.66 -2 5.32 -2 6 C-1.34 6 -0.68 6 0 6 C0 4.02 0 2.04 0 0 Z " fill="#C8C8C8" transform="translate(85,58)"/>
<path d="M0 0 C0.66 0 1.32 0 2 0 C2 7.26 2 14.52 2 22 C-1.45531999 15.08936002 -1.77143624 8.52860402 0 1 C0 0.67 0 0.34 0 0 Z " fill="#D8D8D8" transform="translate(95,0)"/>
<path d="M0 0 C1.65 0 3.3 0 5 0 C5 2.97 5 5.94 5 9 C4.67 9 4.34 9 4 9 C3.67 6.69 3.34 4.38 3 2 C1.68 6.29 0.36 10.58 -1 15 C-1.33 15 -1.66 15 -2 15 C-1.85930804 12.87465341 -1.71229079 10.74972471 -1.5625 8.625 C-1.48128906 7.44164062 -1.40007812 6.25828125 -1.31640625 5.0390625 C-1 2 -1 2 0 0 Z " fill="#C6C6C6" transform="translate(116,8)"/>
<path d="M0 0 C0.66 1.32 1.32 2.64 2 4 C0.7260411 6.03833424 -0.61061923 8.03852126 -2 10 C-2.66 10 -3.32 10 -4 10 C-4.28875 10.639375 -4.5775 11.27875 -4.875 11.9375 C-6 14 -6 14 -8 15 C-7.37315423 12.07471973 -6.51695295 9.58774327 -5 7 C-4.34 6.67 -3.68 6.34 -3 6 C-2.29788106 4.34795544 -1.63028587 2.68076231 -1 1 C-0.67 0.67 -0.34 0.34 0 0 Z " fill="#E5E5E5" transform="translate(79,70)"/>
<path d="M0 0 C0.625 1.8125 0.625 1.8125 1 4 C0.01 5.485 0.01 5.485 -1 7 C-0.01 6.67 0.98 6.34 2 6 C1.34 7.65 0.68 9.3 0 11 C-2.475 10.01 -2.475 10.01 -5 9 C-5 8.34 -5 7.68 -5 7 C-6.98 7 -8.96 7 -11 7 C-10.67 6.34 -10.34 5.68 -10 5 C-4.125 5.875 -4.125 5.875 -3 7 C-2.01 4.69 -1.02 2.38 0 0 Z " fill="#EBEBEB" transform="translate(70,69)"/>
<path d="M0 0 C0.66 1.32 1.32 2.64 2 4 C5.465 3.505 5.465 3.505 9 3 C9.33 4.32 9.66 5.64 10 7 C6.67465243 8.10844919 4.37817425 7.84454356 1 7 C0.67 7.66 0.34 8.32 0 9 C0 6.03 0 3.06 0 0 Z " fill="#EDEDED" transform="translate(115,1)"/>
<path d="M0 0 C0.99 0.66 1.98 1.32 3 2 C-2.32886161 6.44071801 -5.07911053 7.60709557 -12 7 C-9.35261084 5.5393715 -8.10551666 5 -5 5 C-5 4.34 -5 3.68 -5 3 C-4.34 3 -3.68 3 -3 3 C-3 2.34 -3 1.68 -3 1 C-2.01 0.67 -1.02 0.34 0 0 Z " fill="#C7C7C7" transform="translate(54,141)"/>
<path d="M0 0 C1.65 0 3.3 0 5 0 C5 1.32 5 2.64 5 4 C4.34 4 3.68 4 3 4 C3 3.34 3 2.68 3 2 C2.34 2 1.68 2 1 2 C0.7525 2.61875 0.505 3.2375 0.25 3.875 C-1.20628639 6.35068687 -2.37812506 6.95125002 -5 8 C-4.1875 5.5625 -4.1875 5.5625 -3 3 C-2.01 2.67 -1.02 2.34 0 2 C0 1.34 0 0.68 0 0 Z " fill="#E6E6E6" transform="translate(152,64)"/>
<path d="M0 0 C0.33 0 0.66 0 1 0 C1 1.65 1 3.3 1 5 C2.65 4.67 4.3 4.34 6 4 C5.01 4.495 5.01 4.495 4 5 C4.33 5.99 4.66 6.98 5 8 C3.68 8 2.36 8 1 8 C1 9.65 1 11.3 1 13 C-0.9078584 9.8250906 -1.1609041 7.89414789 -0.625 4.25 C-0.51414063 3.45078125 -0.40328125 2.6515625 -0.2890625 1.828125 C-0.19367188 1.22484375 -0.09828125 0.6215625 0 0 Z " fill="#CECECE" transform="translate(129,63)"/>
<path d="M0 0 C2.97 0 5.94 0 9 0 C8 3 8 3 6.0625 4.0625 C5.381875 4.371875 4.70125 4.68125 4 5 C3.34 5.66 2.68 6.32 2 7 C1.34 4.69 0.68 2.38 0 0 Z " fill="#E6E6E6" transform="translate(126,47)"/>
<path d="M0 0 C0.99 0 1.98 0 3 0 C3.16682272 4.92127034 3.24828052 8.50343896 1 13 C0.67 13 0.34 13 0 13 C0 8.71 0 4.42 0 0 Z " fill="#232323" transform="translate(97,0)"/>
<path d="M0 0 C1.65 0 3.3 0 5 0 C3.52307692 5.66153846 3.52307692 5.66153846 0.875 7.375 C-0.053125 7.684375 -0.053125 7.684375 -1 8 C-2.2077558 4.37673261 -1.54311128 3.35853631 0 0 Z " fill="#E3E3E3" transform="translate(132,136)"/>
<path d="M0 0 C2.81169728 1.3179831 3.61334879 3.23353014 5 5.9375 C0.78087253 5.4580537 -1.79663178 4.77124881 -5 1.9375 C-2 -0.0625 -2 -0.0625 0 0 Z " fill="#D4D4D4" transform="translate(117,129.0625)"/>
<path d="M0 0 C0.66 0.33 1.32 0.66 2 1 C1.34 1.66 0.68 2.32 0 3 C-0.67651207 5.19704511 -0.67651207 5.19704511 -1.125 7.625 C-1.29257812 8.44226563 -1.46015625 9.25953125 -1.6328125 10.1015625 C-1.75398438 10.72804688 -1.87515625 11.35453125 -2 12 C-3.32 11.67 -4.64 11.34 -6 11 C-4.54955729 6.89041233 -2.48889248 3.56741255 0 0 Z " fill="#252525" transform="translate(59,111)"/>
<path d="M0 0 C0.99 0.33 1.98 0.66 3 1 C3 1.66 3 2.32 3 3 C3.66 3 4.32 3 5 3 C5 6.96 5 10.92 5 15 C4.67 15 4.34 15 4 15 C3.67 12.03 3.34 9.06 3 6 C2.01 6.495 2.01 6.495 1 7 C0.67 4.69 0.34 2.38 0 0 Z " fill="#373737" transform="translate(121,33)"/>
<path d="M0 0 C0.33 0.66 0.66 1.32 1 2 C1.66 2 2.32 2 3 2 C3.66 3.65 4.32 5.3 5 7 C4.34 7 3.68 7 3 7 C2.34 8.32 1.68 9.64 1 11 C-0.20272819 8.59454362 -0.10071472 7.05003047 -0.0625 4.375 C-0.05347656 3.55773437 -0.04445313 2.74046875 -0.03515625 1.8984375 C-0.02355469 1.27195312 -0.01195313 0.64546875 0 0 Z " fill="#D2D2D2" transform="translate(123,25)"/>
<path d="M0 0 C0.33 0 0.66 0 1 0 C0.67 3.3 0.34 6.6 0 10 C-1.32 10.33 -2.64 10.66 -4 11 C-3.5247412 9.35303396 -3.04468109 7.70745272 -2.5625 6.0625 C-2.29566406 5.14597656 -2.02882813 4.22945312 -1.75390625 3.28515625 C-1 1 -1 1 0 0 Z " fill="#202020" transform="translate(124,15)"/>
<path d="M0 0 C0.66666667 2.66666667 1.33333333 5.33333333 2 8 C0.02 8.99 -1.96 9.98 -4 11 C-4 10.01 -4 9.02 -4 8 C-3.34 7.67 -2.68 7.34 -2 7 C-2.04125 6.21625 -2.0825 5.4325 -2.125 4.625 C-2 2 -2 2 0 0 Z " fill="#CDCDCD" transform="translate(156,112)"/>
<path d="M0 0 C0.66 0 1.32 0 2 0 C2.33 2.97 2.66 5.94 3 9 C2.34 9 1.68 9 1 9 C0.67 10.32 0.34 11.64 0 13 C0 8.71 0 4.42 0 0 Z " fill="#3A3A3A" transform="translate(92,6)"/>
<path d="M0 0 C1.9375 0.375 1.9375 0.375 4 1 C4.33 1.66 4.66 2.32 5 3 C3.35 3.33 1.7 3.66 0 4 C0 4.66 0 5.32 0 6 C-0.99 5.67 -1.98 5.34 -3 5 C-2.67 4.01 -2.34 3.02 -2 2 C-1.34 2 -0.68 2 0 2 C0 1.34 0 0.68 0 0 Z " fill="#EDEDED" transform="translate(35,146)"/>
<path d="M0 0 C0.66 0 1.32 0 2 0 C1.625 2.9375 1.625 2.9375 1 6 C0.01 6.495 0.01 6.495 -1 7 C-1.66 6.67 -2.32 6.34 -3 6 C-2.42655063 3.13275314 -2.1385485 2.1385485 0 0 Z " fill="#EBEBEB" transform="translate(84,90)"/>
<path d="M0 0 C1.0326802 2.78823655 1.04509293 3.8677274 0.0625 6.75 C-0.288125 7.4925 -0.63875 8.235 -1 9 C-1.99 8.34 -2.98 7.68 -4 7 C-4 6.01 -4 5.02 -4 4 C-3.34 4 -2.68 4 -2 4 C-2 3.01 -2 2.02 -2 1 C-1.34 0.67 -0.68 0.34 0 0 Z " fill="#DDDDDD" transform="translate(54,115)"/>
<path d="M0 0 C0.598125 0.20625 1.19625 0.4125 1.8125 0.625 C1.1525 2.275 0.4925 3.925 -0.1875 5.625 C-1.8375 4.305 -3.4875 2.985 -5.1875 1.625 C-2.1875 -0.375 -2.1875 -0.375 0 0 Z " fill="#DFDFDF" transform="translate(82.1875,96.375)"/>
<path d="M0 0 C0.99 0.33 1.98 0.66 3 1 C3 6 3 6 1 9 C-0.61949011 6.42786866 -1.04408751 5.32330841 -0.625 2.25 C-0.41875 1.5075 -0.2125 0.765 0 0 Z " fill="#EAEAEA" transform="translate(130,71)"/>
<path d="M0 0 C1.65 0.33 3.3 0.66 5 1 C4.67 1.99 4.34 2.98 4 4 C1.4375 5.1875 1.4375 5.1875 -1 6 C-0.649375 5.38125 -0.29875 4.7625 0.0625 4.125 C0.371875 3.42375 0.68125 2.7225 1 2 C0.67 1.34 0.34 0.68 0 0 Z " fill="#EDEDED" transform="translate(57,107)"/>
<path d="M0 0 C0 0.66 0 1.32 0 2 C-1.65 2.33 -3.3 2.66 -5 3 C-5 2.34 -5 1.68 -5 1 C-5.66 0.67 -6.32 0.34 -7 0 C-3.98968256 -0.93423645 -3.13349732 -1.04449911 0 0 Z " fill="#121212" transform="translate(79,105)"/>
</svg>
