<?xml version="1.0" encoding="utf-8"?>
<!-- Generator: Adobe Illustrator 27.5.0, SVG Export Plug-In . SVG Version: 6.00 Build 0)  -->
<svg version="1.1" xmlns="http://www.w3.org/2000/svg" xmlns:xlink="http://www.w3.org/1999/xlink" x="0px" y="0px"
	 viewBox="0 0 650 500" style="enable-background:new 0 0 650 500;" xml:space="preserve">
<g id="BACKGROUND">
	<rect x="0.17" y="-1.021" style="fill:#FFFDF8;" width="650" height="500"/>
</g>
<g id="OBJECTS">
	<path style="fill:#272525;" d="M275.027,83.212c-0.092-0.639-0.239-1.268-0.431-1.884c-0.791-2.54-2.283-4.768-3.941-6.819
		c-1.795-2.221-3.733-4.331-5.615-6.478c-1.672-1.908-3.482-3.877-5.992-4.629c-1.48-0.443-2.927-0.254-4.39,0.154
		c-0.748,0.208-1.496,0.428-2.231,0.677c-0.53,0.179-1.066,0.347-1.588,0.548c-0.248-0.049-0.495-0.069-0.752-0.07
		c-0.555-0.001-1.111,0.008-1.666,0.039c-1.139,0.064-2.263,0.241-3.37,0.516c-2.235,0.557-4.428,1.334-6.613,2.058
		c-0.605,0.201-1.221,0.385-1.813,0.623c-0.149,0.06-0.303,0.118-0.458,0.176c-1.115,0.247-2.229,0.499-3.325,0.821
		c-1.369,0.402-2.701,0.899-4.029,1.42c-3.285,1.289-6.352,2.239-9.311,4.484c-0.299,0.171-0.589,0.357-0.884,0.536
		c-1.107,0.233-2.341,0.489-3.182,1.239c-0.452,0.403-0.717,0.942-0.779,1.498c-0.026,0.02-0.053,0.039-0.078,0.06
		c-0.969,0.168-1.819,0.815-2.248,1.695c-5.145,2.981-10.043,6.379-14.65,10.137c-1.167,0.952-2.703,1.998-2.848,3.639
		c-0.055,0.625,0.16,1.237,0.529,1.717c-1.456,1.126-2.64,2.659-2.057,4.62c0.259,0.87,0.965,1.523,1.768,1.812
		c-0.526,0.623-1.059,1.242-1.585,1.865c-0.99-2.379-1.857-4.868-2.277-6.652c-0.646-2.746-0.621-7.94-2.298-10.213
		c-0.847-1.148-0.696-5.181-1.298-6.473c-0.602-1.293-0.93-2.651-1.425-3.979c-0.825-2.209-3.138-2.729-5.246-2.891
		c-2.703-0.209-5.267-0.808-7.96-1.221c-3.239-0.497-6.497-0.862-9.765-1.108c-6.586-0.496-13.201-0.518-19.798-0.254
		c-6.592,0.264-13.169,0.813-19.732,1.475c-6.695,0.675-13.372,1.452-19.951,2.903c-3.17,0.699-6.349,1.479-9.427,2.516
		c-1.428,0.481-2.834,1.057-4.172,1.753c-0.7,0.365-1.363,0.777-2.009,1.23c-0.423,0.296-0.823,0.629-1.097,1.064
		c-0.013-0.002-0.024-0.009-0.037-0.009c-0.827,0.012-0.852,1.259-0.519,1.784c0.549,0.868,1.876,0.908,2.775,1.059
		c1.759,0.296,3.518,0.592,5.277,0.888c-0.931,0.291-1.863,0.582-2.792,0.878c-2.418,0.771-4.827,1.572-7.221,2.416
		c-4.8,1.694-9.525,3.579-14.101,5.813c-1.272,0.621-2.531,1.27-3.771,1.951c-0.91,0.5-1.969,1.033-2.735,1.788
		c-0.159,0.035-0.312,0.119-0.43,0.246c-0.346,0.373-0.395,0.967-0.121,1.392c0.297,0.462,0.835,0.671,1.348,0.79
		c0.642,0.149,1.295,0.262,1.946,0.362c2.004,0.309,4.027,0.444,6.052,0.485c-0.624,0.363-1.244,0.733-1.858,1.113
		c-2.085,1.289-4.144,2.736-5.75,4.608c-0.444,0.517-0.857,1.063-1.218,1.641c-0.208,0.332-0.429,0.711-0.572,1.106
		c-0.175,0.265-0.224,0.618-0.139,0.943c0.18,0.686,0.868,0.986,1.516,1.053c0.735,0.077,1.509-0.036,2.242-0.1
		c0.809-0.071,1.616-0.161,2.421-0.267c1.584-0.208,3.159-0.474,4.73-0.765c-0.345,0.251-0.692,0.499-1.034,0.754
		c-2.264,1.688-4.453,3.48-6.564,5.356c-0.598,0.531-1.19,1.069-1.776,1.614c-0.276,0.257-0.561,0.512-0.813,0.794
		c-0.18,0.201-0.414,0.446-0.455,0.721c-0.028,0.038-0.062,0.073-0.088,0.112c-0.234,0.361,0.084,0.749,0.45,0.785
		c1.221,0.12,2.524-0.046,3.736-0.197c1.243-0.154,2.477-0.373,3.698-0.654c2.45-0.564,4.841-1.359,7.187-2.258
		c2.366-0.907,4.651-1.968,6.963-2.999c0.646-0.288,1.295-0.569,1.942-0.855c-0.483,0.295-0.966,0.594-1.438,0.907
		c-2.234,1.483-4.333,3.145-6.445,4.793c-1.921,1.499-3.892,3.113-5.021,5.326c-0.28,0.548-0.557,1.155-0.541,1.784
		c0.017,0.672,0.402,1.25,1.062,1.441c0.63,0.183,1.403,0.14,2.048,0.066c0.41-0.047,0.776-0.148,1.112-0.322
		c-0.031,0.413-0.026,0.823,0.013,1.244c0.031,0.334,0.323,0.637,0.686,0.522c0.17-0.054,0.347-0.099,0.514-0.162
		c0.177-0.067,0.312-0.191,0.488-0.259c0.194-0.076,0.315-0.217,0.327-0.429c0.028-0.518,0.137-1.038,0.291-1.545
		c0.041,0.232,0.076,0.463,0.09,0.691c0.017,0.287,0.248,0.442,0.521,0.396c1.004-0.166,1.896-0.729,2.797-1.206
		c-0.019,0.013-0.038,0.027-0.056,0.04c-1.112,0.784-2.191,1.634-3.209,2.538c-1.006,0.893-1.93,1.874-2.711,2.971
		c-0.424,0.596-0.492,1.362,0.211,1.782c0.597,0.356,1.382,0.408,2.057,0.347c1.443-0.13,2.889-0.571,4.281-0.957
		c1.444-0.4,2.873-0.851,4.289-1.343c2.821-0.981,5.585-2.123,8.311-3.342c1.42-0.635,2.829-1.294,4.233-1.962
		c0.35,0.165,0.782,0.209,1.146,0.261c0.534,0.076,1.07,0.142,1.608,0.178c1.067,0.072,2.17,0.009,3.192-0.328
		c1.048-0.346,2.027-0.879,3.003-1.387c0.055-0.029,0.111-0.058,0.166-0.087c1.067,0.548,2.243,0.902,3.403,1.203
		c1.153,0.3,2.341,0.515,3.534,0.548c1.205,0.033,2.409-0.143,3.547-0.539c1.145-0.398,2.227-0.958,3.311-1.495l1.895-0.938
		l0.917-0.454c0.175-0.087,0.347-0.162,0.504-0.257c0.474,0.076,0.999,0.034,1.311-0.038c1.031-0.236,1.981-0.891,2.899-1.392
		c2.024-1.105,4.047-2.209,6.071-3.314c0.363-0.198,0.763-0.382,1.133-0.597c0.245,0.153,0.497,0.294,0.757,0.408
		c0.626,0.274,1.288,0.433,1.963,0.505c-0.052,0.463-0.049,0.931,0.028,1.392c0.161,0.974,0.615,1.85,1.229,2.613
		c1.113,1.384,2.686,2.252,4.262,3.016c-1.671,0.373-3.333,0.785-4.984,1.238c-3.387,0.928-6.728,2.022-10.008,3.276
		c-3.245,1.241-6.433,2.635-9.544,4.18c-3.156,1.568-6.205,3.341-9.285,5.051c-1.706,0.947-3.423,1.872-5.166,2.749
		c-0.549,0.276-1.105,0.537-1.659,0.802c-0.412,0.193-0.821,0.39-1.237,0.574c-2.784,1.231-5.633,2.337-8.496,3.371
		c-5.75,2.076-11.629,3.757-17.43,5.681c-1.643,0.545-3.282,1.099-4.913,1.677c-1.615,0.572-3.263,1.115-4.823,1.826
		c-0.363,0.166-0.138,0.656,0.185,0.684c0.224,0.019,0.447,0.038,0.671,0.057c-0.365,0.197-0.723,0.407-1.083,0.63
		c-0.162,0.101-0.344,0.168-0.51,0.263c-0.183,0.105-0.312,0.248-0.445,0.411c-0.285,0.35-0.463,0.738-0.578,1.174
		c-0.075,0.283,0.143,0.606,0.451,0.593c0.567-0.025,1.133-0.006,1.699,0.014c-0.058,0.3-0.121,0.599-0.205,0.897
		c-0.06,0.21,0.073,0.503,0.307,0.541c0.127,0.02,0.256,0.028,0.385,0.038c-0.198,0.303-0.402,0.603-0.634,0.872
		c-0.201,0.233-0.089,0.703,0.278,0.671c0.816-0.07,1.665-0.191,2.474-0.421c-0.23,0.268-0.455,0.543-0.68,0.827
		c-0.202,0.256-0.184,0.737,0.214,0.81c1.156,0.212,2.321,0.383,3.482,0.573c-0.253,0.44-0.467,0.899-0.644,1.378
		c-0.135,0.366,0.31,0.6,0.601,0.462c0.542-0.259,1.088-0.512,1.631-0.768c-0.268,0.329-0.566,0.634-0.892,0.913
		c-0.212,0.182-0.165,0.512,0,0.7c0.934,1.064,2.34,0.48,3.318-0.184c0.694-0.471,1.382-0.933,2.09-1.365
		c-0.317,0.463-0.652,0.914-1.003,1.352c-0.29,0.361,0.073,0.959,0.527,0.683c1.307-0.794,2.608-1.599,3.92-2.384
		c0.458-0.274,0.921-0.538,1.384-0.803c0.159,0.29,0.398,0.528,0.627,0.771c0.247,0.262,0.49,0.572,0.792,0.775
		c0.69,0.462,1.498-0.067,2.165-0.324c1.374-0.528,2.736-1.092,4.085-1.684c0.451,0.569,1.271,0.659,1.989,0.459
		c0.55-0.153,1.084-0.373,1.627-0.548c0.533-0.172,1.066-0.345,1.602-0.506c1.072-0.323,2.152-0.625,3.231-0.92
		c0.54-0.148,1.076-0.312,1.615-0.467c0.215-0.062,0.505-0.195,0.73-0.141c0.137,0.033,0.289,0.157,0.404,0.256
		c0.082,0.095,0.203,0.172,0.33,0.158c0.933-0.101,1.844-0.428,2.747-0.673c0.916-0.249,1.833-0.494,2.75-0.736
		c1.596-0.421,3.196-0.824,4.795-1.231c-0.037,0.259-0.065,0.518-0.074,0.783c-0.007,0.206,0.194,0.433,0.411,0.411
		c0.63-0.064,1.306,0.008,1.939,0.031c0.647,0.024,1.293,0.049,1.94,0.074c0.558,0.021,1.118,0.075,1.62-0.208
		c0.576-0.325,1.129-0.694,1.688-1.047c2.114-1.336,4.229-2.672,6.343-4.008c0.219,0.284,0.545,0.507,0.83,0.697
		c0.401,0.265,0.832,0.471,1.281,0.64c0.416,0.156,0.848,0.27,1.288,0.337c0.483,0.074,1.007,0.15,1.477-0.024
		c0.107-0.04,0.226-0.116,0.283-0.225c0.008-0.007,0.016-0.014,0.029-0.028c0.025-0.031,0.048-0.062,0.071-0.094
		c0.021-0.029,0.021-0.067,0.021-0.103c0.023-0.021,0.047-0.042,0.069-0.061c0.189-0.161,0.358-0.34,0.538-0.512
		c0.137-0.132,0.27-0.268,0.404-0.403c0.241,0.305,0.717,0.453,1.076,0.523c0.575,0.113,1.166,0.096,1.747,0.046
		c0.299-0.026,0.597-0.06,0.894-0.097c0.121-0.015,0.236-0.038,0.352-0.061c-0.033,0.185-0.024,0.386,0.01,0.559
		c0.043,0.219,0.133,0.422,0.262,0.597c-1.184,0.747-2.272,1.698-3.147,2.781c-0.45,0.557-0.693,1.236-0.534,1.921
		c-0.225,0.129-0.424,0.327-0.607,0.496c-0.249,0.231-0.485,0.477-0.704,0.736c-0.441,0.522-0.836,1.09-0.931,1.783
		c-0.043,0.312-0.021,0.628,0.028,0.941c-0.31,0.141-0.625,0.441-0.818,0.593c-0.432,0.343-0.831,0.735-1.226,1.121
		c-0.791,0.773-1.539,1.591-2.233,2.453c-0.628,0.78-1.514,1.663-1.516,2.733c-0.001,0.449,0.161,0.921,0.488,1.239
		c0.34,0.331,0.787,0.418,1.238,0.396c-0.164,0.315-0.291,0.669-0.382,1.001c-0.206,0.755-0.239,1.671,0.05,2.41
		c0.587,1.504,2.189,1.717,3.59,1.97c0.213,0.038,0.699,0.022,0.773,0.289c0.073,0.263-0.141,0.651-0.196,0.909
		c-0.057,0.266-0.129,0.576-0.12,0.849c0.013,0.367,0.37,0.674,0.671,0.833c0.588,0.31,1.205,0.331,1.663,0.862
		c0.467,0.541,0.771,1.204,1.399,1.591c0.566,0.349,1.392,0.567,1.739,1.185c0.168,0.299,0.185,0.668,0.239,0.999
		c0.074,0.447,0.237,0.746,0.603,1.02c0.251,0.188,0.574,0.015,0.732-0.192c0.263-0.343,0.612-0.614,0.991-0.816
		c0.184-0.098,0.37-0.186,0.547-0.298c0.01-0.006,0.019-0.012,0.029-0.018c0.253,0.144,0.521,0.259,0.769,0.417
		c0.366,0.234,0.672,0.546,0.941,0.884c0.597,0.752,1.149,1.545,1.723,2.316c0.321,0.431,0.984,0.297,1.024-0.271
		c0.003-0.001,0.013-0.01,0.043-0.044c0.05-0.057,0.118-0.123,0.192-0.148c0.178-0.059,0.396,0.112,0.536,0.212
		c0.363,0.26,0.698,0.577,1.025,0.88c0.408,0.377,0.788,0.833,1.105,1.321c0.036,0.349,0.109,0.703,0.132,1.035
		c0.041,0.615,0.035,1.236,0.016,1.851c-0.038,1.271-0.3,2.494-0.643,3.715c-0.698,2.481-2.068,4.733-3.611,6.776
		c-0.273,0.361-0.559,0.712-0.842,1.066c-0.557,0.643-1.11,1.29-1.639,1.953c-0.679,0.852-1.35,1.712-1.821,2.701
		c-0.225,0.474-0.428,0.973-0.54,1.487c-0.104,0.476-0.236,1.113,0.068,1.54c0.068,0.096,0.233,0.154,0.322,0.042
		c0.169-0.213,0.254-0.472,0.322-0.737c0.108-0.149,0.209-0.305,0.31-0.456c0.254-0.382,0.524-0.752,0.808-1.112
		c0.354-0.45,0.738-0.869,1.131-1.28c0.14,0.093,0.289,0.157,0.385,0.174c0.273,0.047,0.539,0.044,0.811-0.008
		c0.561-0.107,1.05-0.442,1.448-0.84c0.43-0.431,0.785-0.943,1.157-1.424c0.407-0.526,0.815-1.051,1.222-1.577
		c0.83-1.071,1.623-2.17,2.459-3.236c0.235-0.299,0.471-0.596,0.707-0.894c0.024-0.006,0.048-0.016,0.072-0.019
		c0.33-0.038,0.623-0.008,0.912,0.165c0.632,0.377,1.069,1.148,1.378,1.794c0.334,0.7,0.524,1.468,0.716,2.216
		c0.04,0.156,0.096,0.306,0.151,0.457c0.031,0.251,0.063,0.502,0.09,0.753c0.095,0.895,0.187,1.791,0.277,2.687
		c0.094,0.943,0.164,1.889,0.209,2.836c0.039,0.823-0.008,1.707,0.264,2.497c0.188,0.548,0.716,1.419,1.383,1.498
		c0.038,0.016,0.076,0.034,0.115,0.049c0.024,0.009,0.048,0.018,0.072,0.026c0.078,0.026,0.012,0.001-0.024-0.017
		c0.154,0.078,0.336,0.106,0.507,0.097c0.155-0.008,0.329-0.033,0.491-0.085c0.29,0.489,0.54,0.995,0.73,1.533
		c0.24,0.68,0.266,1.387,0.2,2.1c-0.035,0.382-0.099,0.762-0.17,1.139c-0.054,0.285-0.16,0.586-0.038,0.862
		c0.029,0.067,0.12,0.075,0.177,0.047c0.285-0.142,0.388-0.52,0.488-0.8c0.133-0.372,0.227-0.757,0.296-1.145
		c0.144-0.807,0.191-1.609,0.049-2.419c-0.126-0.716-0.471-1.394-0.851-2.008c-0.094-0.151-0.2-0.295-0.291-0.453
		c0.577-1.226,0.103-2.771-0.012-4.051c-0.121-1.342-0.098-2.692-0.143-4.037c-0.045-1.335-0.157-2.685-0.523-3.974
		c-0.181-0.638-0.402-1.262-0.606-1.892c-0.025-0.078-0.04-0.158-0.063-0.236c0.184,0.021,0.368,0.04,0.525,0.089
		c0.493,0.153,0.965,0.383,1.4,0.659c0.419,0.266,0.804,0.578,1.189,0.889c0.395,0.32,0.828,0.58,1.263,0.842
		c0.902,0.542,1.812,0.902,2.865,1.009c1.014,0.104,2.062-0.028,3.043-0.294c0.608-0.164,1.2-0.404,1.813-0.547
		c0.461-0.107,0.956-0.051,1.4-0.176c0.155,0.173,0.303,0.355,0.439,0.551c0.199,0.286,0.371,0.57,0.497,0.897
		c0.088,0.228,0.182,0.538,0.363,0.73c0.005,0.01,0.012,0.018,0.017,0.028c0.085,0.198,0.419,0.187,0.507,0
		c0.058-0.122,0.147-0.196,0.186-0.333c0.04-0.139,0.053-0.283,0.063-0.427c0.016-0.255-0.01-0.501-0.046-0.753
		c-0.037-0.259-0.092-0.513-0.163-0.762c0.774,0.372,1.609,0.602,2.467,0.657c0.197,0.012,0.396-0.002,0.593,0.012
		c0.066,0.005,0.124,0.012,0.182,0.012c0.03,0.036,0.064,0.076,0.071,0.083c0.143,0.156,0.314,0.275,0.49,0.392
		c0.087,0.057,0.197,0.107,0.254,0.197c0.067,0.103,0.051,0.23,0.09,0.351c0.279,0.871,1.249,1.424,2.087,1.638
		c0.552,0.141,1.12,0.148,1.68,0.06c0.345-0.054,0.758-0.154,1.118-0.317c0.049,0.171,0.102,0.341,0.146,0.514
		c0.169,0.667,0.306,1.352,0.377,2.037c0.036,0.351,0.05,0.706,0.051,1.058c0.001,0.317-0.035,0.707,0.087,1.006
		c0.012,0.028,0.051,0.049,0.076,0.02c0.061-0.073,0.11-0.158,0.153-0.248c0.286-0.112,0.525-0.523,0.663-0.747
		c0.25-0.406,0.442-0.841,0.593-1.292c0.308-0.914,0.433-1.905,0.415-2.868c-0.014-0.762-0.155-1.521-0.366-2.256
		c0.16,0.086,0.328,0.156,0.499,0.196c0.458,0.109,0.942,0.105,1.398-0.01c0.287-0.072,0.644-0.201,0.933-0.387
		c0.079,0.063,0.161,0.124,0.245,0.18c0.174,0.115,0.359,0.208,0.552,0.288c0.276,0.114,0.562,0.184,0.855,0.218
		c-0.007,0.302,0.045,0.585,0.213,0.878c0.236,0.41,0.602,0.744,1.033,0.94c0.429,0.195,1.141,0.304,1.693,0.151
		c0.223,0.673,0.362,1.357,0.398,2.072c0.036,0.727-0.068,1.459-0.407,2.112c-0.16,0.308-0.358,0.596-0.581,0.861
		c-0.091,0.108-0.46,0.449-0.212,0.593c0.023,0.013,0.047,0.019,0.071,0.025c0.015,0.011,0.025,0.027,0.042,0.034
		c0.469,0.186,0.972-0.218,1.307-0.505c0.407-0.348,0.756-0.769,1.038-1.223c0.649-1.047,0.796-2.364,0.689-3.569
		c-0.108-1.221-0.393-2.564-1.027-3.628c-0.585-0.982-1.548-1.58-2.612-1.936c-0.017-0.005-0.034-0.009-0.05-0.014
		c-0.566-0.268-1.144-0.51-1.733-0.721c-1.223-0.439-2.49-0.747-3.777-0.929c-0.648-0.092-1.285-0.034-1.934,0.005
		c-0.628,0.037-1.283-0.071-1.889-0.233c-0.626-0.167-1.2-0.376-1.76-0.705c-0.5-0.294-1.06-0.524-1.476-0.94
		c-0.226-0.225-0.332-0.489-0.457-0.775c-0.138-0.316-0.337-0.553-0.624-0.748c-0.08-0.054-0.156-0.107-0.231-0.161
		c0.043-0.419-0.035-0.866-0.126-1.275c-0.09-0.406-0.229-0.796-0.395-1.176c-0.154-0.353-0.527-0.68-0.533-1.082
		c-0.005-0.362,0.189-0.754,0.245-1.114c0.06-0.383,0.039-0.758-0.03-1.139c-0.123-0.684-0.408-1.471-0.998-1.879
		c0.014-0.064,0.027-0.126,0.037-0.184c0.103-0.557,0.099-1.107,0.014-1.666c-0.087-0.572-0.262-1.126-0.473-1.664
		c-0.107-0.272-0.235-0.531-0.377-0.785c-0.086-0.154-0.191-0.323-0.318-0.462c0.135-0.215,0.305-0.419,0.443-0.604
		c0.338-0.452,0.649-0.925,0.978-1.383c0.684-0.953,1.381-1.896,2.094-2.828c1.404-1.835,2.875-3.63,4.416-5.352
		c0.435-0.486,0.87-0.973,1.302-1.463c0.04-0.045,0.076-0.091,0.115-0.137c0.122,0.026,0.245,0.051,0.37,0.077
		c0.459,0.095,0.919,0.19,1.379,0.282c0.877,0.174,1.757,0.33,2.639,0.473c1.782,0.29,3.593,0.493,5.396,0.588
		c3.584,0.189,7.166-0.236,10.692-0.851c1.008-0.176,2.012-0.369,3.016-0.57c0.188,0.038,0.387,0.039,0.598,0.031
		c0.5-0.018,1.01-0.024,1.508-0.069c0.927-0.084,1.858-0.247,2.776-0.403c1.83-0.31,3.648-0.694,5.445-1.163
		c3.638-0.95,7.188-2.255,10.538-3.966c0.984-0.502,1.95-1.038,2.908-1.588c0.467-0.269,0.899-0.554,1.336-0.868
		c0.033-0.024,0.063-0.047,0.095-0.07c0.542-0.318,1.084-0.637,1.624-0.958c1.145-0.682,2.282-1.377,3.423-2.066
		c2.16-1.304,4.305-2.638,6.528-3.833c0.502-0.27,1.012-0.524,1.527-0.778c0.445,0.135,0.892,0.266,1.343,0.383
		c0.451,0.117,0.903,0.227,1.357,0.33c0.292,0.066,0.633,0.18,0.959,0.208c0.026,0.434,0.052,0.869,0.091,1.301
		c0.026,0.297,0.053,0.599,0.097,0.895c0.019,0.127,0.04,0.258,0.065,0.383c0.039,0.192,0.117,0.306,0.201,0.498
		c0.018,0.049,0.04,0.098,0.073,0.143c0.065,0.09,0.196,0.179,0.315,0.128c0.575-0.242,0.698-1.176,0.848-1.718
		c0.187-0.673,0.355-1.354,0.485-2.041c0.248-1.309,0.358-2.665,0.236-3.995c-0.115-1.254-0.414-2.466-1.023-3.576
		c-0.624-1.137-1.57-2.081-2.579-2.882c-0.099-0.079-0.201-0.155-0.302-0.231c-0.156-0.611-0.623-1.172-1.03-1.609
		c-0.57-0.613-1.253-1.099-1.951-1.555c-1.517-0.991-3.164-1.774-4.871-2.38c-3.583-1.272-7.435-1.701-11.222-1.524
		c-0.189,0.009-9.043-0.251-9.043-0.251c-1.872-8.17-5.106-3.915,3.234-23.66s44.398-27.145,44.398-27.145
		c0.244-0.082,0.488-0.165,0.733-0.248c1.141-0.389,2.305-0.77,3.298-1.472c0.891-0.63,1.649-1.433,2.215-2.368
		c0.343-0.566,0.605-1.176,0.788-1.809c0.217-0.075,0.429-0.172,0.627-0.318C275.188,84.489,275.121,83.867,275.027,83.212z
		 M169.486,202.038c-0.046,0.346-0.133,0.721-0.145,1.077c-0.206-0.061-0.413-0.119-0.621-0.167
		c-0.549-0.127-1.106-0.21-1.665-0.281c-0.265-0.033-0.564-0.101-0.832-0.089c-0.108,0.005-0.197,0.031-0.281,0.065
		c-0.357-0.187-0.707-0.355-1.096-0.486c-0.463-0.157-0.857-0.489-1.325-0.62c-0.487-0.136-0.998-0.163-1.475-0.34
		c-0.835-0.309-1.52-0.934-2.285-1.373c-0.358-0.205-0.767-0.441-1.189-0.447c-0.022,0-0.043,0.003-0.064,0.004
		c-0.167-0.3-0.391-0.571-0.64-0.804c-0.323-0.302-0.727-0.522-0.997-0.88c-0.027-0.036-0.046-0.073-0.066-0.111
		c0.038-0.059,0.057-0.131,0.035-0.199c-0.067-0.215-0.046-0.469-0.059-0.693c-0.017-0.288,0.019-0.577-0.003-0.864
		c-0.056-0.746-0.434-1.473-0.893-2.051c-0.426-0.536-0.949-0.979-1.421-1.473c-0.203-0.212-0.416-0.445-0.536-0.718
		c-0.074-0.169-0.038-0.331-0.062-0.515c-0.025-0.184-0.027-0.366-0.033-0.551c-0.012-0.339-0.009-0.675-0.008-1.014
		c0.002-0.421-0.081-0.798-0.134-1.212c-0.096-0.739-0.353-1.527-0.179-2.271c0.173-0.74,0.449-1.417,0.465-2.189
		c0.007-0.318-0.052-0.714,0.08-1.01c0.145-0.325,0.463-0.582,0.713-0.823c0.585-0.563,1.188-1.109,1.79-1.655
		c0.046,0.551,0.309,1.026,0.715,1.329c-0.107,0.023-0.216,0.043-0.321,0.071c-0.439,0.12-0.869,0.272-1.294,0.436
		c-0.276,0.107-0.336,0.541,0,0.623c0.395,0.096,0.794,0.178,1.192,0.259c-0.085,0.062-0.17,0.125-0.268,0.174
		c-0.104,0.052-0.146,0.168-0.137,0.279c-0.678,0.713-1.151,1.687-1.515,2.566c-0.159,0.383,0.304,0.786,0.667,0.667
		c0.4-0.131,0.788-0.301,1.175-0.469c-0.128,0.373-0.23,0.753-0.31,1.152c-0.063,0.316,0.262,0.62,0.566,0.436
		c0.342-0.207,0.695-0.396,1.052-0.578c-0.209,0.223-0.417,0.448-0.635,0.664c-0.296,0.295-0.663,0.569-0.757,0.999
		c-0.089,0.405,0.023,0.865,0.108,1.262c0.039,0.184,0.074,0.365,0.09,0.553c0.015,0.173,0.016,0.348,0.152,0.476
		c0.251,0.236,0.59,0.085,0.818-0.097c0.077-0.062,0.15-0.13,0.227-0.194c-0.046,0.087-0.098,0.172-0.143,0.26
		c-0.102,0.199,0.019,0.501,0.276,0.482c0.558-0.043,0.908-0.433,1.277-0.814c0.349-0.36,0.733-0.692,1.124-1.006
		c0.467-0.374,1.012-0.667,1.508-1.013c-0.004,0.103-0.005,0.202-0.008,0.285c-0.012,0.353-0.037,0.707-0.024,1.061
		c0.011,0.316,0.343,0.66,0.686,0.523c0.179-0.072,0.325-0.138,0.475-0.264c0.111-0.093,0.219-0.166,0.343-0.241
		c0.152-0.092,0.301-0.185,0.447-0.282c0.017,0.027,0.035,0.055,0.059,0.088c0.121,0.167,0.257,0.283,0.425,0.401
		c0.108,0.076,0.222,0.143,0.335,0.21c-0.237,0.249-0.467,0.506-0.681,0.766c-0.376,0.454-0.639,0.934-0.916,1.449
		c-0.165,0.306,0.164,0.627,0.468,0.468c0.57-0.298,1.141-0.596,1.711-0.894c0.281-0.147,0.525-0.337,0.789-0.514
		c0.097-0.065,0.189-0.133,0.281-0.203c-0.024,0.403,0.025,0.801,0.087,1.211c0.031,0.208,0.08,0.406,0.049,0.592
		c-0.014,0.031-0.024,0.055-0.032,0.074c-0.022,0.022-0.045,0.045-0.067,0.067c-0.096,0.072-0.182,0.169-0.275,0.247
		c-0.671,0.564-1.324,1.179-1.65,2.012c-0.089,0.228,0.175,0.458,0.391,0.391c0.481-0.148,0.965-0.288,1.448-0.429
		c-0.167,0.213-0.331,0.469-0.584,0.566c-0.42,0.162-0.523,0.843,0,0.96c0.463,0.104,0.958,0.106,1.43,0.127
		c0.382,0.018,0.765,0.041,1.147,0.051c0.054,0.111,0.096,0.238,0.141,0.335c0.076,0.163,0.152,0.325,0.226,0.489
		c0.149,0.327,0.293,0.657,0.439,0.985c0.079,0.177,0.158,0.354,0.237,0.531c0.055,0.302,0.085,0.612,0.097,0.917
		C169.618,201.247,169.538,201.647,169.486,202.038z"/>
	<path style="fill:#272525;" d="M579.746,417.379c0.068,0.57-0.668,0.688-0.964,0.315c-0.911-1.148-1.818-2.261-2.613-3.497
		c-0.79-1.23-1.531-2.491-2.253-3.761c-0.754-1.326-1.526-2.645-2.311-3.952c-0.399-0.666-0.784-1.351-1.225-1.99
		c-0.318-0.461-0.655-0.895-0.952-1.361c-0.154,0.092-0.31,0.179-0.474,0.256c2.089,7.087,3.644,14.384,3.806,21.771
		c0.015,0.681-0.866,0.985-1.255,0.411c-0.716-1.059-1.433-2.116-2.14-3.18c-0.266-0.401-0.574-0.827-0.855-1.27
		c-0.088,0.861-0.215,1.709-0.365,2.567c-0.111,0.634-1.117,0.894-1.43,0.27c-0.853-1.703-1.696-3.412-2.514-5.132
		c-1.428-3.004-2.807-6.029-4.13-9.08c-0.655-1.51-1.294-3.027-1.916-4.551c-0.192-0.471-0.378-0.946-0.566-1.419
		c0.175,2.636,0.315,5.273,0.398,7.918c0.059,1.886,0.106,3.772,0.141,5.659c0.034,1.851-0.015,3.715,0.087,5.563
		c0.038,0.692-0.778,1.039-1.288,0.616c-2.018-1.672-2.961-4.401-3.692-6.826c-0.557-1.848-1.141-3.715-1.624-5.6
		c-0.027,0.153-0.053,0.306-0.076,0.457c-0.11,0.748-0.228,1.493-0.32,2.244c-0.082,0.674-1.109,0.849-1.432,0.27
		c-1.638-2.931-3.099-5.934-4.523-8.972c-0.717-1.53-1.402-3.072-2.047-4.634c-0.437-1.058-0.869-2.118-1.211-3.205
		c-0.282,0.425-0.599,0.829-0.946,1.165c-0.293,0.284-0.659,0.504-1.081,0.453c-0.483-0.058-0.746-0.404-1.039-0.752
		c-0.607-0.72-1.231-1.424-1.844-2.139c-1.111-1.296-2.151-2.645-3.219-3.975c-0.522-0.65-1.091-1.288-1.574-1.966
		c-0.415-0.584-0.837-1.298-0.781-2.039c0.108-1.446-1.075-2.58-2.167-3.371c-0.619-0.448-1.309-0.796-1.94-1.229
		c-0.687-0.471-1.342-0.957-1.889-1.591c-0.98-1.137-1.485-2.63-2.544-3.701c-1.063-1.075-2.466-1.741-3.447-2.908
		c-0.924-1.098-1.281-2.528-1.917-3.791c-0.696-1.382-1.933-2.033-3.37-2.419c-0.098-0.026-0.172-0.072-0.236-0.125
		c-0.306-0.049-0.489-0.062-0.732,0.201c-0.214,0.23-0.426,0.449-0.679,0.639c-0.931,0.697-2.15,0.871-3.253,0.578
		c-1.024,1.196-2.479,2.029-4.011,2.362c-1.608,0.35-3.147,0.192-4.629-0.445c-0.818,0.774-1.788,1.358-2.862,1.716
		c-0.6,0.2-1.234,0.335-1.864,0.386c-0.331,0.027-0.667,0.041-0.986-0.012c-0.186,0.339-0.452,0.653-0.717,0.931
		c-0.519,0.543-1.136,1.002-1.808,1.338c-1.316,0.659-2.799,0.914-4.242,0.619c-1.782,1.537-4.369,2.441-6.688,1.821
		c-0.463,0.429-0.902,0.873-1.43,1.236c-0.59,0.407-1.24,0.736-1.912,0.984c-1.189,0.438-2.656,0.702-3.949,0.5
		c-0.8,0.941-1.746,1.793-2.829,2.383c-0.597,0.325-1.241,0.571-1.9,0.737c-0.413,0.103-0.895,0.215-1.32,0.142
		c-0.105,0.729-0.567,1.535-0.83,2.09c-0.431,0.909-0.911,1.789-1.491,2.613c-0.127,0.181-0.263,0.356-0.401,0.528
		c0.959,0.931,1.917,1.862,2.876,2.793c4.12,4.002,8.241,8.003,12.361,12.005c2.037,1.978,4.073,3.956,6.11,5.934
		c1.042,1.012,2.084,2.024,3.126,3.036c0.521,0.506,1.042,1.012,1.563,1.518c0.511,0.496,1.098,0.976,1.444,1.605
		c0.216,0.392,0.039,0.781-0.329,0.938c-0.211,0.228-0.441,0.284-0.836,0.342c-0.384,0.057-0.764,0.135-1.148,0.187
		c-0.777,0.106-1.558,0.176-2.337,0.266c-0.228,0.026-0.46,0.036-0.688,0.069c-0.127,0.018-0.384,0.02-0.479,0.053
		c-0.291,0.102-0.664,0.422-0.945,0.6c-0.655,0.414-1.3,0.756-2.032,1.017c-1.498,0.534-3.085,0.679-4.666,0.558
		c-0.823-0.063-1.593-0.311-2.406-0.402c-0.424-0.047-0.833-0.091-1.238-0.152c0.066,0.192,0.144,0.381,0.188,0.58
		c0.122,0.542,0.311,1.255-0.156,1.694c-0.222,0.208-0.55,0.234-0.825,0.338c-0.341,0.129-0.678,0.267-1.022,0.39
		c-0.659,0.236-1.328,0.431-1.997,0.634c-1.21,0.367-2.687,1.039-3.929,0.562c-0.627-0.241-1.163-0.673-1.693-1.074
		c-0.444-0.335-0.888-0.655-1.321-0.999c-0.137,0.001-0.272,0.009-0.411,0.002c0.198,0.633-0.037,1.259-0.717,1.524
		c-0.367,0.143-0.785,0.167-1.172,0.217c-0.505,0.066-1.011,0.131-1.516,0.196c-0.898,0.116-1.837,0.322-2.745,0.295
		c-0.944-0.028-1.66-0.508-2.361-1.094c-0.737-0.617-1.453-1.26-2.16-1.911c-0.707-0.651-1.403-1.316-2.085-1.993
		c-0.366-0.363-0.718-0.734-1.057-1.122c-0.185-0.212-0.357-0.436-0.537-0.652c-0.027,0.004-0.052,0.015-0.079,0.017
		c-0.205,0.013-0.365-0.063-0.52-0.145c-0.555,0.996-1.76,1.455-2.88,1.59c-1.302,0.158-2.652-0.185-3.75-0.901
		c-1.243-0.811-2.317-1.843-3.306-2.943c-0.564-0.626-1.102-1.275-1.589-1.964c-0.128-0.181-0.244-0.361-0.354-0.543
		c-0.423-0.056-0.794-0.405-1.049-0.83c-0.059,0.036-0.118,0.072-0.183,0.093c-0.512,0.163-0.887-0.203-1.183-0.562
		c-0.272-0.331-0.537-0.668-0.805-1.002c-0.203,0.258-0.468,0.473-0.743,0.579c-0.856,0.331-2.019,0.05-2.873-0.18
		c-0.914-0.245-1.749-0.67-2.319-1.448c-0.481-0.658-0.652-1.483-0.783-2.27c-0.15-0.906-0.214-1.821-0.385-2.724
		c-0.177-0.936-0.377-1.868-0.594-2.796c-0.428-1.83-0.966-3.613-1.57-5.392c-0.271-0.799-0.501-1.63-0.571-2.473
		c-0.035-0.424-0.037-1.282,0.275-1.745c-0.258-0.222-0.516-0.443-0.776-0.659c-0.848-0.707-1.827-1.373-2.523-2.238
		c-0.624-0.776-0.403-1.932-1.11-2.596c-8.23-7.73-9.213-21.738-10.213-31.248c-1.136-1.855-5.052-6.332-6.731-7.682
		c-0.967-0.787-1.884-1.628-2.703-2.565c-0.846-0.967-1.618-1.995-2.475-2.952c-0.777-0.867-1.596-1.688-2.344-2.58
		c-0.812,0.414-1.713,0.664-2.627,0.602c-1.233-0.083-2.334-0.779-3.282-1.529c-0.477-0.377-0.916-0.805-1.317-1.261
		c-0.276-0.312-0.552-0.628-0.732-0.993c-0.111-0.033-0.22-0.073-0.332-0.109c-0.384-0.122-0.784-0.199-1.187-0.213
		c-0.95-0.033-1.839-0.035-2.75-0.352c-0.461-0.16-0.894-0.366-1.303-0.634c-0.291-0.191-0.557-0.48-0.913-0.334
		c-0.153,0.063-0.296,0.149-0.437,0.238c-0.064,0.423-0.14,0.842-0.248,1.246c-0.473,1.762-2.117,2.405-3.586,3.201
		c-1.378,0.746-2.754,1.589-4.319,1.858c-0.736,0.126-1.596,0.122-2.292-0.174c-0.161-0.069-0.364-0.184-0.557-0.327
		c-1.032,1.011-2.346,1.642-3.709,2.081c-1.421,0.458-2.89,0.747-4.318,1.179c-0.788,0.238-1.553,0.544-2.283,0.924
		c-0.169,0.088-0.335,0.189-0.501,0.293c-1.714,1.889-3.776,3.448-6.164,4.404c-0.731,0.293-1.486,0.517-2.258,0.67
		c-0.694,0.137-1.761,0.431-2.438,0.144c-0.886-0.376-0.783-1.678-0.866-2.485c-0.012-0.12-0.029-0.253-0.046-0.39
		c-1.523,1.758-3.161,3.417-4.925,4.933c-1.368,1.176-2.793,2.288-4.286,3.302c-1.355,0.921-2.776,1.836-4.477,1.785
		c-0.421-0.013-0.784-0.345-0.691-0.795c0.342-1.648,0.822-3.262,1.44-4.828c0.074-0.187,0.156-0.371,0.233-0.557
		c-1.284,1.38-2.598,2.732-3.98,4.01c-1.201,1.11-2.456,2.167-3.785,3.121c-1.272,0.913-2.667,1.85-4.158,2.355
		c-0.589,0.2-1.08-0.44-0.836-0.975c0.426-0.932,0.732-1.964,1.056-2.936c0.308-0.922,0.628-1.84,0.977-2.747
		c1.27-3.298,2.791-6.495,4.484-9.596c0.125-0.229,0.257-0.455,0.383-0.684c-2.281,2.616-4.666,5.144-7.255,7.458
		c-3.026,2.706-6.425,5.669-10.533,6.433c-0.582,0.108-0.854-0.595-0.677-1.032c0.72-1.775,1.542-3.516,2.393-5.232
		c1.5-3.022,3.164-5.953,4.802-8.902c0.811-1.461,1.618-2.924,2.379-4.412c0.293-0.572,0.566-1.163,0.841-1.753
		c-2.616,2.944-5.431,5.708-8.433,8.257c-1.54,1.308-3.11,2.601-4.778,3.745c-0.79,0.543-1.613,1.034-2.476,1.452
		c-0.847,0.411-1.776,0.837-2.726,0.921c-0.628,0.055-0.848-0.673-0.53-1.109c0.346-0.476,0.572-1.049,0.829-1.577
		c0.242-0.499,0.486-0.998,0.732-1.495c0.477-0.966,0.962-1.928,1.457-2.885c1.812-3.502,3.773-6.92,5.995-10.179
		c0.949-1.392,1.934-2.756,2.934-4.11c-2.422,2.243-4.955,4.417-7.702,6.212c-1.621,1.059-3.35,1.97-5.174,2.625
		c-1.701,0.611-3.706,1.15-5.526,0.922c-0.108-0.014-0.194-0.064-0.268-0.127c-0.344-0.3-0.313-1.001,0.197-1.106
		c0.017-0.003,0.034-0.006,0.05-0.009c0.065-0.102,0.133-0.202,0.197-0.299c0.294-0.444,0.593-0.885,0.901-1.32
		c0.618-0.873,1.263-1.728,1.907-2.582c2.357-3.129,4.729-6.263,7.213-9.293c0.713-0.87,1.439-1.73,2.169-2.585
		c-0.507,0.191-1.069,0.405-1.587,0.348c-0.423,0.112-0.962-0.392-0.7-0.854c0.386-0.68,0.794-1.341,1.22-1.997
		c3.477-5.368,7.471-10.44,11.924-15.034c4.524-4.667,9.707-8.618,15.233-12.02c2.88-1.773,5.819-3.45,8.744-5.147
		c2.994-1.737,5.977-3.498,8.991-5.2c2.846-1.607,5.766-3.102,8.805-4.309c2.908-1.155,5.91-2.039,8.971-2.684
		c3.031-0.638,6.161-1.076,9.243-0.541c1.485,0.258,2.958,0.758,4.265,1.513c0.637,0.367,1.279,0.79,1.814,1.297
		c0.561,0.533,0.927,1.122,1.225,1.829c0.07,0.071,0.141,0.14,0.211,0.212c0.827,0.849,1.608,1.742,2.361,2.657
		c1.499,1.82,2.856,3.753,4.129,5.738c2.329,3.631,4.375,7.431,6.531,11.165c2.317,4.013,4.866,7.882,7.272,11.841
		c2.43,4,4.576,8.131,6.392,12.445c0.82,1.95,1.58,3.925,2.314,5.909c0.248,0.159,0.911,1.711,1.542,3.948
		c0.274-0.462,0.567-0.914,0.898-1.338c0.875-1.122,2.062-2.045,2.147-3.566c0.03-0.541-0.206-0.966-0.639-1.276
		c-0.201-0.144-0.447-0.323-0.67-0.428c0.225,0.106-0.112,0.003-0.215,0.013c-0.117,0.011-0.25,0.034-0.357,0.083
		c-0.837,0.389-1.705-0.636-0.996-1.328c1.567-1.53,3.671-2.404,5.841-2.763c0.688-0.479,1.658-0.682,2.425-0.834
		c1.008-0.2,2.049-0.276,3.075-0.21c3.804,0.245,7.088,2.268,9.248,5.369c1.086,1.559,1.832,3.367,2.247,5.217
		c0.089,0.397,0.153,0.801,0.215,1.204c0.373,0.812,0.719,1.637,1.042,2.471c1.271,1.598,2.325,3.373,3.15,5.239
		c0.483,1.092,0.898,2.209,1.266,3.342c3.107-2.812,8.542-7.345,12.931-8.941c3.333-1,6.538-2.378,9.592-4.04
		c6.779-3.688,12.802-8.633,18.287-14.027c2.864-2.816,5.449-5.894,8.224-8.794c0.704-0.736,1.427-1.448,2.168-2.145
		c0.691-0.651,1.381-1.318,2.181-1.836c0.753-0.488,1.585-0.843,2.481-0.952c0.901-0.109,1.809,0.11,2.651,0.415
		c1.76,0.636,3.391,1.731,4.982,2.7c1.669,1.016,3.308,2.082,4.917,3.19c3.265,2.247,6.403,4.676,9.392,7.28
		c2.962,2.58,5.778,5.328,8.428,8.227c2.387,2.611,4.658,5.332,6.648,8.257c0.13,0.132,0.258,0.271,0.386,0.421
		c0.448,0.526,0.88,1.067,1.317,1.604c0.927,1.141,1.843,2.291,2.748,3.45c1.769,2.267,3.526,4.544,5.259,6.839
		c6.009,7.953,11.814,16.104,17.167,24.515c2.547,4.001,4.939,8.113,7.057,12.359c1.044,2.093,2.024,4.218,2.932,6.374
		c0.925,2.198,1.838,4.442,2.552,6.719c0.112,0.357-0.022,0.647-0.25,0.822c0.024,0.071,0.049,0.141,0.064,0.216
		c0.032,0.168-0.137,0.3-0.282,0.318c-0.11,0.014-0.215,0.012-0.323-0.02c-0.106-0.031-0.209-0.029-0.317-0.055
		c-0.247-0.059-0.484-0.226-0.691-0.366c-0.32-0.215-0.672-0.497-0.988-0.766c-0.365-0.312-0.722-0.64-1.066-0.98
		c-0.051,0.157-0.103,0.314-0.156,0.47c-0.092,0.273-0.185,0.543-0.299,0.808c-0.054,0.125-0.126,0.233-0.204,0.338
		C576.315,403.629,578.909,410.349,579.746,417.379z"/>
	<path style="fill:#272525;" d="M345.259,426.996c-0.128-0.009-0.195,0.029-0.274,0.129c-0.014,0.018-0.012,0.041-0.017,0.062
		c-0.032,0.021-0.076,0.048-0.127,0.079c-0.014-0.009-0.025-0.021-0.043-0.026c-0.437-0.12-0.797,0.012-1.218,0.153
		c-0.484,0.162-0.967,0.327-1.454,0.482c-0.988,0.313-1.979,0.616-2.976,0.896c-1.97,0.553-3.967,1.016-5.98,1.382
		c-0.809,0.147-1.623,0.271-2.437,0.39c0.547-0.27,1.089-0.549,1.616-0.852c3.181-1.823,6.053-4.142,8.568-6.806
		c0.695-0.736,1.364-1.499,1.995-2.291c0.327-0.411,0.643-0.831,0.95-1.257c0.157-0.218,0.316-0.427,0.438-0.653
		c0.051-0.028,0.101-0.06,0.153-0.087c0.181-0.097,0.166-0.363,0.026-0.46c0.002-0.014,0.007-0.025,0.008-0.039
		c0.014-0.18-0.173-0.301-0.333-0.228c-0.255,0.116-0.425,0.288-0.587,0.487c-1.687,0.665-3.171,1.882-4.65,2.89
		c-1.824,1.244-3.656,2.472-5.558,3.593c-3.619,2.134-7.484,4.014-11.601,4.95c0.762-0.429,1.504-0.896,2.234-1.385
		c2.636-1.769,5.05-3.805,7.247-6.093c1.22-1.271,2.521-2.603,3.467-4.096c0.062-0.098,0.029-0.21-0.042-0.276
		c0.02-0.025,0.044-0.046,0.063-0.071c0.138-0.175-0.098-0.466-0.294-0.34c-0.969,0.623-1.814,1.449-2.732,2.148
		c-0.935,0.713-1.903,1.386-2.882,2.035c-1.967,1.303-4.014,2.505-6.121,3.569c-2.132,1.076-4.343,2.055-6.602,2.832
		c-1.216,0.418-2.466,0.748-3.743,0.914c-1.208,0.157-2.422,0.118-3.636,0.07c-0.443-0.018-0.885-0.036-1.328-0.054
		c-0.549-0.073-1.102-0.129-1.645-0.226c-1.589-0.285-3.139-0.767-4.646-1.343c-3.097-1.184-6.11-2.615-9.032-4.179
		c-0.772-0.413-1.46-0.958-2.228-1.381c-0.77-0.424-1.564-0.823-2.359-1.2c-1.575-0.746-3.16-1.436-4.697-2.263
		c-2.738-1.474-5.521-2.927-8.174-4.56c-0.022-0.052-0.055-0.102-0.111-0.142c-0.766-0.555-1.49-1.117-2.31-1.595
		c-0.815-0.475-1.658-0.898-2.489-1.344c-1.64-0.88-3.263-1.79-4.87-2.729c-3.239-1.894-6.409-3.892-9.499-6.019
		c-6.169-4.247-12.03-8.944-17.502-14.059c-0.797-0.745-1.578-1.508-2.367-2.263c-1.505-1.703-3.256-3.081-5.108-4.414
		c-2.034-1.464-4.144-2.799-6.267-4.128c-2.003-1.253-4.031-2.536-5.761-4.152c-1.676-1.567-3.207-3.285-4.649-5.068
		c-0.794-0.982-1.549-1.993-2.319-2.993c-0.131-0.17-0.258-0.343-0.385-0.516c0.132-0.126,0.258-0.26,0.393-0.384
		c0.793-0.729,1.62-1.405,2.551-1.953c0.925-0.545,1.904-0.98,2.925-1.309c0.185-0.06,0.368-0.131,0.553-0.195
		c0.159,0.13,0.373,0.214,0.56,0.267c0.375,0.106,0.751,0.212,1.127,0.318c0.359,0.101,0.722,0.207,1.092,0.26
		c0.088,0.013,0.179,0.021,0.271,0.026c0.002,0.159,0.006,0.317,0.004,0.475c-0.006,0.429-0.008,0.876,0.133,1.281
		c-0.041,0.075-0.077,0.152-0.097,0.237c-0.03,0.131,0.085,0.264,0.222,0.199c0.479-0.23,0.791-0.939,1.019-1.395
		c0.306-0.61,0.584-1.224,0.734-1.892c0.294-1.311,0.106-2.602-0.37-3.846c-0.499-1.303-1.398-2.5-2.469-3.391
		c-0.091-0.076-0.189-0.142-0.282-0.215c-0.189-1.63-1.958-2.872-3.236-3.71c-1.736-1.139-3.657-2.019-5.769-2.014
		c-2.279,0.005-4.585,0.377-6.843,0.66c-2.236,0.281-4.472,0.574-6.718,0.768c-0.269-0.059-0.538-0.119-0.805-0.177
		c-1.106-0.241-2.217-0.474-3.345-0.584c-0.306-0.03-0.61-0.059-0.914-0.093c-0.073-0.04-0.143-0.084-0.217-0.123
		c-1.199-0.645-2.416-1.258-3.65-1.835c-1.226-0.573-2.48-1.091-3.758-1.538c-0.112-0.039-0.226-0.071-0.339-0.11
		c-1.373-0.78-2.715-1.615-4.021-2.502c-2.917-1.981-5.683-4.173-8.42-6.393c-5.908-4.792-11.86-9.508-18.045-13.942
		c-1.769-1.269-3.552-2.519-5.347-3.751c-0.763-0.523-1.54-1.03-2.329-1.516c-0.079-0.066-0.159-0.131-0.237-0.197
		c-1.73-1.458-3.46-2.917-5.19-4.376c-1.699-1.433-3.376-2.908-5.137-4.265c-0.393-0.303-0.839-0.502-1.263-0.759
		c-0.466-0.282-0.944-0.55-1.421-0.814c-0.877-0.486-1.886-0.901-2.639-1.576c-0.365-0.327-0.694-0.665-1.08-0.973
		c-0.439-0.349-0.871-0.708-1.304-1.063c-0.878-0.72-1.756-1.44-2.634-2.159c-1.756-1.44-3.512-2.879-5.268-4.319
		c-3.333-2.733-6.734-5.391-10.034-8.164c-1.674-1.406-3.281-2.891-4.755-4.508c-1.007-1.105-1.893-2.298-2.79-3.483
		c-0.778-1.527-1.488-3.09-2.1-4.689c-2.068-5.401-2.871-11.225-3.131-16.976c-0.142-3.157-0.109-6.346-0.387-9.495
		c0.033-0.199,0.07-0.397,0.094-0.597c0.045-0.368-0.479-0.452-0.612-0.133c-0.463,1.112-0.667,2.369-0.877,3.552
		c-0.208,1.17-0.364,2.351-0.496,3.532c-0.268,2.387-0.359,4.78-0.195,7.178c0.338,4.942,1.578,9.713,3.743,14.168
		c0.201,0.414,0.416,0.823,0.627,1.233c-0.138-0.167-0.277-0.333-0.415-0.5c-1.05-1.28-2.086-2.568-3.065-3.904
		c-1.955-2.669-3.767-5.437-5.363-8.337c-3.187-5.791-5.667-12.05-7.285-18.46c-0.913-3.618-1.332-7.326-1.78-11.021
		c-0.004-0.063-0.004-0.126-0.008-0.189c-0.021-0.316-0.461-0.234-0.513,0.026c-0.321,1.622-0.277,3.349-0.244,4.996
		c0.033,1.661,0.147,3.309,0.368,4.956c0.446,3.327,1.237,6.602,2.323,9.777c2.091,6.11,5.368,11.803,9.188,16.989
		c0.321,0.436,0.656,0.863,0.986,1.293c-1.278-1.128-2.533-2.282-3.729-3.498c-2.393-2.433-4.45-5.171-6.408-7.959
		c-3.857-5.493-7.303-11.38-9.818-17.613c-0.703-1.742-1.34-3.51-1.891-5.306c-0.282-0.916-0.542-1.84-0.786-2.767
		c-0.197-0.749-0.376-1.512-0.619-2.249c-0.021-0.147-0.04-0.295-0.063-0.442c-0.051-0.329-0.562-0.302-0.584,0.03
		c-0.108,1.668,0.082,3.373,0.315,5.024c0.241,1.711,0.564,3.423,0.984,5.1c0.834,3.333,1.992,6.545,3.469,9.646
		c2.962,6.219,6.851,12.018,11.812,16.816c0.511,0.494,1.038,0.97,1.564,1.446c-0.507-0.073-1.024,0.027-1.537,0.142
		c-1.97-1.749-3.972-3.446-5.856-5.294c-1.954-1.916-3.865-3.877-5.719-5.889c-1.849-2.007-3.632-4.073-5.343-6.199
		c-1.715-2.131-3.417-4.27-4.926-6.556c-0.855-1.296-1.659-2.626-2.448-3.962c-0.791-1.341-1.482-2.737-2.26-4.085
		c-0.092-0.159-0.261-0.16-0.37-0.079c-0.168-0.019-0.343,0.081-0.295,0.296c0.304,1.372,0.949,2.689,1.521,3.966
		c0.591,1.319,1.189,2.631,1.839,3.922c1.299,2.579,2.735,5.108,4.367,7.491c3.315,4.837,7.18,9.243,11.443,13.264
		c0.128,0.121,0.259,0.24,0.388,0.361c-0.41-0.249-0.825-0.491-1.232-0.745c-2.311-1.443-4.557-2.98-6.766-4.573
		c-4.43-3.195-8.632-6.639-12.618-10.375c-1.114-1.044-2.2-2.12-3.275-3.204c-0.905-0.913-1.762-1.923-2.727-2.782
		c-0.117-0.134-0.232-0.27-0.352-0.4c-0.178-0.192-0.542,0.018-0.399,0.264c0.614,1.056,1.382,2.031,2.125,2.999
		c0.765,0.998,1.544,1.986,2.334,2.964c1.578,1.954,3.272,3.817,4.979,5.659c3.411,3.682,7.135,7.057,10.933,10.333
		c0.844,0.728,1.689,1.46,2.548,2.173c0.001,0.001,0.002,0.002,0.003,0.004c0.033,0.04,0.106,0.155,0.156,0.25
		c0.056,0.104,0.117,0.205,0.171,0.31c0.03,0.058,0.056,0.117,0.082,0.177c0.008,0.018,0.009,0.018,0.011,0.023
		c0.002,0.005,0,0.002,0.003,0.01c0.018,0.063,0.026,0.128,0.044,0.19c0.003,0.011,0.004,0.01,0.006,0.017
		c-0.001,0.003-0.002,0-0.003,0.005c-0.006,0.037-0.011,0.087-0.01,0.125c0,0.009,0.002,0.006,0.003,0.009
		c-0.004,0.007-0.005,0.008-0.01,0.023c-0.015,0.039-0.029,0.077-0.044,0.116c0.046-0.121,0.001-0.002-0.018,0.028
		c-0.014,0.023-0.034,0.048-0.043,0.059c-0.007,0.006-0.014,0.012-0.021,0.018c-0.006-0.003-0.073,0.034-0.035,0.027
		c0.005-0.001,0.001,0,0.004,0c0,0-0.001,0.001-0.001,0.001c-0.026,0.006-0.105,0.023-0.115,0.024
		c-0.053,0.01-0.113,0.013-0.17,0.018c-1.861-0.881-3.715-1.776-5.551-2.707c-3.958-2.007-7.791-4.239-11.564-6.571
		c-1.034-0.639-2.052-1.304-3.071-1.966c-0.844-0.549-1.684-1.134-2.561-1.636c-0.168-0.137-0.34-0.269-0.517-0.39
		c-0.167-0.114-0.397,0.044-0.37,0.23c-0.025,0.078-0.028,0.163,0.033,0.226c0.067,0.07,0.141,0.133,0.21,0.201
		c0.388,0.565,0.851,1.085,1.291,1.605c0.536,0.633,1.109,1.242,1.683,1.84c1.168,1.216,2.377,2.395,3.669,3.481
		c2.618,2.2,5.707,3.652,8.869,4.89c-0.821,0.068-1.652,0.063-2.47-0.028c-0.751-0.084-1.522-0.191-2.244-0.421
		c-0.388-0.124-0.768-0.27-1.149-0.412c-0.045-0.017-0.09-0.035-0.135-0.053c-0.17-0.131-0.355-0.236-0.578-0.282
		c-0.138-0.029-0.227,0.084-0.253,0.201c-0.046,0.037-0.084,0.092-0.084,0.146c-0.003,0.287,0.199,0.546,0.468,0.772
		c0.082,0.104,0.165,0.205,0.244,0.302c0.315,0.387,0.661,0.75,1.002,1.115c0.703,0.75,1.422,1.489,2.162,2.201
		c0.726,0.698,1.456,1.39,2.173,2.097c0.336,0.331,0.687,0.743,1.077,1.092c-0.019,0.005-0.038,0.01-0.056,0.014
		c-0.366,0.085-0.882,0.083-1.112,0.436c-0.254,0.39-0.002,0.794,0.183,1.15c0.23,0.444,0.461,0.888,0.709,1.322
		c0.933,1.628,1.967,3.194,3.028,4.74c-0.194,0.228-0.254,0.551-0.019,0.808c0.873,0.954,1.841,1.821,2.714,2.779
		c0.811,0.89,1.534,1.956,2.479,2.708c0.119,0.095,0.245,0.178,0.375,0.254c-0.191,1.244,1.181,2.167,2.002,2.917
		c1.078,0.984,2.156,1.983,3.292,2.901c0.26,0.21,0.529,0.403,0.805,0.581c-0.209,0.43-0.135,1.009-0.095,1.462
		c0.048,0.54,0.164,1.075,0.289,1.601c0.113,0.471,0.205,1.013,0.535,1.389c0.387,0.441,0.976,0.51,1.509,0.335
		c0.499-0.164,0.974-0.423,1.444-0.653c0.5-0.245,1.003-0.485,1.5-0.736c0.497-0.251,0.984-0.522,1.477-0.781
		c0.056-0.03,0.105-0.067,0.158-0.1c-0.009,0.234-0.027,0.467-0.088,0.703c-0.145,0.555-0.406,1.067-0.773,1.507
		c-0.402,0.482-1.007,0.786-1.505,1.162c-0.455,0.343-0.819,0.766-1.091,1.268c-0.553,1.019-0.55,2.188,0.114,3.155
		c0.288,0.419,0.702,0.747,1.16,0.964c0.293,0.138,0.596,0.205,0.903,0.261c-0.124,0.297-0.2,0.602-0.193,0.974
		c0.01,0.548,0.152,1.087,0.387,1.581c0.542,1.144,1.586,1.9,2.65,2.524c0.531,0.312,1.073,0.608,1.574,0.967
		c0.546,0.39,1.072,0.807,1.695,1.072c0.243,0.103,0.499,0.173,0.76,0.225c0.035,0.342,0.241,0.691,0.333,1.022
		c0.08,0.29,0.094,0.574,0.214,0.854c0.104,0.242,0.239,0.468,0.386,0.686c0.344,0.51,0.808,0.94,1.311,1.292
		c0.456,0.319,0.907,0.529,1.223,1.01c0.236,0.359,0.451,0.786,0.815,1.026c0.451,0.298,0.992,0.325,1.52,0.292
		c-0.004,0.405,0.094,0.79,0.305,1.191c0.269,0.509,0.647,0.964,1.158,1.24c0.46,0.249,1.009,0.352,1.437,0.657
		c0.475,0.339,0.661,0.927,0.858,1.451c0.392,1.039,1.202,1.837,2.353,1.653c0.046,0.505,0.553,0.965,0.905,1.265
		c0.465,0.397,0.968,0.673,1.537,0.89c0.579,0.221,0.724,0.723,1.098,1.181c0.388,0.475,0.864,0.884,1.337,1.273
		c0.463,0.38,0.991,0.801,1.569,0.983c0.537,0.169,1.066,0.075,1.592-0.055c0.102,1.005,1.001,1.978,1.705,2.562
		c0.467,0.387,1.008,0.714,1.535,1.013c0.513,0.291,1.161,0.594,1.201,1.257c0.015,0.244,0.334,0.448,0.562,0.384
		c0.515-0.146,1.004-0.364,1.494-0.579c-0.06,0.103-0.116,0.202-0.165,0.27c-0.271,0.382-0.692,0.809-0.723,1.299
		c-0.035,0.568,0.419,0.898,0.832,1.188c0.488,0.343,0.977,0.663,1.491,0.966c0.518,0.305,1.009,0.602,1.621,0.367
		c0.133-0.051,0.263-0.111,0.391-0.176c0.026,0.29,0.1,0.57,0.26,0.82c0.383,0.599,0.956,1.093,1.513,1.527
		c0.54,0.421,1.189,0.706,1.862,0.83c0.039,0.007,0.08,0.005,0.12,0.01c-0.093,0.651,0.537,1.329,0.916,1.795
		c0.491,0.604,1.025,1.167,1.615,1.676c0.572,0.494,1.202,0.835,1.976,0.836c0.159,0,0.321-0.008,0.482-0.019
		c0.039,0.698,0.827,1.262,1.355,1.625c0.698,0.479,1.508,0.807,2.278,1.153c0.439,0.197,0.896,0.323,1.362,0.363
		c0.143,0.837,0.924,1.54,1.638,1.909c0.026,0.013,0.052,0.02,0.078,0.033c-0.081,0.453,0.02,0.976,0.105,1.402
		c0.111,0.555,0.329,1.108,0.611,1.598c0.61,1.062,1.542,1.797,2.754,2.033c1.124,0.219,2.295-0.044,3.369-0.379
		c-0.096,0.205-0.19,0.411-0.285,0.617c-0.07,0.151-0.133,0.328-0.215,0.484c-0.166,0.043-0.376,0.058-0.517,0.099
		c-0.233,0.069-0.464,0.148-0.686,0.249c-0.461,0.209-0.894,0.507-1.273,0.842c-0.102,0.09-0.204,0.184-0.306,0.282
		c-1.221,0.111-2.442,0.211-3.669,0.259c-3.778,0.147-7.552,0.004-11.327-0.148c-3.73-0.15-7.468-0.278-11.2-0.097
		c-1.848,0.089-3.692,0.25-5.524,0.506c-1.306,0.183-3.788,0.412-3.319,2.352c0.236,0.976,1.18,1.709,1.846,2.4
		c0.726,0.755,1.423,1.573,2.21,2.264c0.479,0.42,0.998,0.719,1.559,0.953c-0.609,0.121-1.219,0.259-1.817,0.415
		c-1.423,0.372-3.197,1.121-3.786,2.579c-0.291,0.72-0.214,1.537,0.262,2.157c0.43,0.561,1.091,0.892,1.697,1.227
		c0.138,0.076,0.277,0.152,0.415,0.229c-0.243,0.326-0.415,0.715-0.579,1.078c-0.238,0.525-0.453,1.057-0.585,1.618
		c-0.139,0.588-0.316,1.225-0.039,1.803c0.25,0.524,0.79,0.902,1.236,1.249c0.261,0.204,0.542,0.379,0.816,0.564
		c-0.658,1,0.122,2.419,1.081,2.942c0.554,0.302,1.144,0.548,1.728,0.789c0.001,0.63,0.494,1.327,0.983,1.664
		c0.718,0.494,1.664,0.543,2.517,0.53c-0.08,0.278-0.061,0.616-0.033,0.852c0.064,0.526,0.294,1.008,0.612,1.425
		c0.662,0.868,1.684,1.359,2.681,1.734c0.498,0.188,1.018,0.366,1.557,0.343c0.427-0.018,0.843-0.151,1.235-0.326
		c0.042,0.176,0.104,0.343,0.181,0.485c0.172,0.314,0.425,0.595,0.731,0.784c0.163,0.101,0.341,0.173,0.524,0.228
		c-0.052,0.173-0.058,0.361-0.017,0.534c0.094,0.398,0.447,0.789,0.831,0.925c0.975,0.344,2.261-0.311,3.122-0.717
		c0.251-0.118,0.5-0.244,0.746-0.377c0.204,0.391,0.625,0.705,0.949,0.977c0.418,0.352,0.842,0.692,1.28,1.018
		c0.782,0.584,1.607,1.362,2.658,1.011c0.299-0.1,0.567-0.271,0.823-0.458c0.018,0.044,0.036,0.088,0.067,0.127
		c0.919,1.174,2.585,1.217,3.935,1.004c1.029-0.163,1.991-0.507,2.917-0.949c0.255,0.356,0.685,0.602,1.049,0.829
		c0.597,0.371,1.193,0.744,1.799,1.1c0.544,0.319,1.116,0.783,1.784,0.645c0.19-0.039,0.368-0.124,0.538-0.232
		c0.378,0.375,0.931,0.608,1.417,0.733c0.892,0.229,1.601,0.166,2.187-0.603c1.141-1.5,2.362-2.937,3.56-4.392
		c2.362-2.866,4.713-5.743,6.941-8.715c0.619-0.825,1.309-1.664,1.824-2.559c0.074-0.129,0.142-0.262,0.214-0.392
		c0.016,0.008,0.028,0.019,0.046,0.026c0.581,0.232,1.365,0.049,1.978,0.004c0.685-0.05,1.369-0.103,2.053-0.161
		c1.103-0.093,2.207-0.177,3.31-0.262c0.14,0.948,0.798,1.771,1.579,2.34c0.519,0.378,1.103,0.664,1.677,0.948
		c0.584,0.289,1.191,0.604,1.823,0.772c0.574,0.152,1.145,0.224,1.711-0.003c0.267-0.107,0.524-0.254,0.775-0.412
		c0.029,0.168,0.08,0.332,0.158,0.474c0.234,0.422,0.617,0.693,1.032,0.916c0.447,0.241,0.912,0.447,1.374,0.656
		c0.212,0.096,0.422,0.195,0.639,0.28c0.086,0.034,0.171,0.069,0.257,0.101c-0.019,0.202,0.004,0.407,0.082,0.609
		c0.126,0.327,0.412,0.577,0.714,0.739c0.607,0.324,1.292,0.498,1.935,0.739c0.315,0.118,0.628,0.233,0.945,0.342
		c0.04,0.014,0.071,0.018,0.108,0.028c0.006,0.169,0.024,0.338,0.07,0.504c0.257,0.925,1.019,1.477,1.853,1.857
		c0.853,0.389,1.768,0.606,2.681,0.803c0.234,0.05,0.471,0.1,0.709,0.144c-0.086,0.545,0.061,1.125,0.459,1.513
		c0.422,0.411,0.979,0.58,1.517,0.78c0.319,0.119,0.621,0.266,0.954,0.342c-0.086-0.02,0.119,0.032,0.121,0.033
		c0.074,0.024,0.148,0.049,0.224,0.069c0.11,0.03,0.199,0.046,0.289,0.05c-0.01,0.055-0.021,0.111-0.023,0.165
		c-0.035,0.832,0.878,1.248,1.475,1.629c0.572,0.365,1.156,0.698,1.747,1.03c0.295,0.166,0.63,0.381,0.956,0.479
		c0.097,0.029,0.2,0.047,0.304,0.059c0.043,0.3,0.185,0.59,0.378,0.816c0.428,0.501,1.032,0.915,1.579,1.277
		c0.555,0.367,1.143,0.685,1.747,0.963c0.188,0.086,0.346,0.14,0.552,0.182c0.016,0.003,0.019,0.003,0.025,0.004
		c0.032,0.007,0.064,0.015,0.097,0.022c0.091,0.02,0.183,0.047,0.276,0.061c0.154,0.024,0.277,0.002,0.396-0.032
		c0.272,0.627,1.142,0.823,1.716,1.095c0.279,0.133,0.546,0.236,0.779,0.445c0.295,0.263,0.535,0.597,0.777,0.908
		c0.457,0.589,0.997,1.071,1.611,1.491c0.379,0.26,0.926,0.645,1.451,0.744c0.317,0.291,0.797,0.503,1.078,0.652
		c0.665,0.354,1.346,0.634,1.984,1.041c0.578,0.369,1.16,0.762,1.765,1.085c0.353,0.188,0.717,0.35,1.116,0.41
		c0.047,0.007,0.083-0.002,0.124-0.003c0.048,0.166,0.123,0.321,0.264,0.437c0.387,0.317,0.985,0.292,1.46,0.347
		c0.166,0.019,0.329,0.03,0.492,0.031c0.05,0.224,0.245,0.416,0.555,0.383c0.167-0.018,0.336-0.036,0.505-0.052
		c-0.271,0.285-0.261,0.861,0.107,1.05c0.874,0.45,1.83,0.727,2.755,1.051c0.407,0.142,0.889,0.4,1.333,0.317
		c0.394-0.074,0.648-0.363,0.834-0.694c0.258-0.459,0.543-0.905,0.822-1.353c0.05,0.18,0.098,0.36,0.153,0.538
		c0.029,0.094,0.058,0.232,0.107,0.329c-0.115,0.114-0.219,0.277-0.319,0.397c-0.136,0.164-0.262,0.334-0.374,0.515
		c-0.218,0.35-0.51,0.784-0.428,1.218c0.089,0.476,0.497,0.636,0.9,0.784c0.417,0.154,0.825,0.328,1.227,0.515
		c0.395,0.184,0.783,0.383,1.163,0.596c0.378,0.212,0.837,0.422,1.146,0.728c0.261,0.258,0.595,0.265,0.861,0.071
		c0.349,0.406,0.829,0.692,1.295,0.953c0.344,0.192,0.689,0.39,1.06,0.526c0.277,0.101,0.611,0.176,0.828,0.378
		c0.273,0.255,0.456,0.571,0.813,0.728c0.086,0.038,0.17,0.055,0.254,0.064c0.302,0.343,0.736,0.615,1.08,0.754
		c0.852,0.344,1.896,0.473,2.808,0.436c1.685-0.069,3.308,0.975,4.787,1.668c0.746,0.35,1.428,0.669,2.261,0.752
		c1.02,0.102,1.977-0.184,2.968-0.368c0.417-0.078,0.901-0.253,1.322-0.219c0.385,0.031,0.756,0.208,1.102,0.366
		c0.684,0.312,1.378,0.795,2.113,0.965c0.93,0.215,1.865-0.095,2.613-0.647c0.337,0.378,0.765,0.682,1.164,0.988
		c0.531,0.408,1.128,0.694,1.727,0.988c1.208,0.593,2.397,1.123,3.656,1.598c1.273,0.481,2.571,0.474,3.902,0.282
		c0.554-0.08,1.209-0.155,1.747,0.043c0.228,0.084,0.429,0.206,0.63,0.339c0.26,0.191,0.529,0.372,0.825,0.532
		c0.703,0.378,1.418,0.732,2.156,1.036c1.468,0.604,3.007,1.024,4.587,1.194c0.402,0.043,0.807,0.099,1.21,0.133
		c0.408,0.034,0.81-0.007,1.212,0.096c0.722,0.184,1.426,0.524,2.086,0.864c1.31,0.674,2.484,1.45,4.006,1.506
		c1.264,0.046,2.732-0.307,3.555-1.311c1.525,0.467,3.007,1.176,4.443,1.839c0.8,0.369,1.586,0.771,2.383,1.147
		c0.806,0.381,1.748,0.701,2.483,1.204c0.472,0.322,1.14-0.104,1.028-0.671c-0.14-0.714-0.412-1.411-0.695-2.097
		c0.265,0.112,0.52,0.235,0.775,0.38l1.728,0.982c1.179,0.67,2.339,1.372,3.52,2.038c1.155,0.651,2.309,1.302,3.464,1.953
		c1.16,0.654,2.35,1.51,3.637,1.873c0.335,0.095,0.729-0.329,0.423-0.618c-0.606-0.57-1.333-0.965-2.055-1.37
		c-0.582-0.455-1.154-0.925-1.714-1.406c-1.192-1.022-2.297-2.137-3.349-3.3c-0.852-0.941-1.65-1.934-2.408-2.953
		c-0.012-0.025-0.025-0.049-0.036-0.075c-0.01-0.023-0.018-0.047-0.028-0.069c-0.009-0.049-0.011-0.118-0.031-0.159l0.004,0.087
		c0.001-0.049-0.004-0.098-0.009-0.146c0.002-0.021,0.003-0.043,0.005-0.066c-0.005,0.006-0.01-0.013,0.001-0.049
		c0.001-0.003,0.002-0.007,0.004-0.01c0-0.008,0.002-0.017,0.002-0.025c0.001,0.009,0,0.012,0,0.02
		c0.004-0.013,0.009-0.026,0.013-0.039c0.023-0.027,0.04-0.057,0.068-0.081c0.305-0.264,0.679-0.552,1.057-0.695
		c0.1-0.038,0.216-0.055,0.333-0.066c1.287,0.692,2.584,1.363,3.908,1.98c4.265,1.99,8.707,3.673,13.26,4.875
		c2.567,0.677,5.172,1.249,7.821,1.463c0.151,0.012,0.21-0.222,0.058-0.266c-4.477-1.283-8.973-2.411-13.343-4.047
		c-1.714-0.642-3.394-1.363-5.056-2.124c-0.816-0.542-1.698-1.006-2.401-1.699c-0.097-0.095-0.18-0.193-0.247-0.31
		c-0.023-0.041-0.16-0.234-0.146-0.176c-0.033-0.133,0.116-0.422,0.178-0.544c0.095-0.189,0.245-0.451,0.465-0.492
		c0.231-0.043,0.598,0.153,0.823,0.219c2.084,0.612,4.213,1.11,6.336,1.568c4.247,0.916,8.542,1.599,12.88,1.882
		c2.462,0.16,4.902,0.165,7.363,0.013c0.247-0.015,0.224-0.43-0.022-0.436c-4.855-0.118-9.722-0.392-14.53-1.106
		c-2.432-0.361-4.845-0.848-7.228-1.453c-1.177-0.299-2.344-0.638-3.499-1.014c-0.045-0.015-0.092-0.032-0.138-0.048
		c-0.008-0.035-0.013-0.07-0.029-0.104c-0.01-0.023-0.019-0.046-0.029-0.069c-0.01-0.041-0.017-0.082-0.022-0.124
		c0-0.07,0.006-0.139,0.017-0.209c0.019-0.069,0.044-0.135,0.073-0.201c0.039-0.067,0.082-0.131,0.131-0.192
		c0.057-0.059,0.113-0.117,0.178-0.169c0.041-0.033,0.084-0.067,0.123-0.102c0.003-0.003,0.006-0.006,0.008-0.009
		c0.652,0.099,1.304,0.201,1.956,0.305c1.425,0.227,2.849,0.46,4.276,0.68c2.84,0.439,5.715,0.764,8.586,0.915
		c5.266,0.278,10.656-0.069,15.622-1.977c1.364-0.524,2.684-1.172,3.94-1.919c0.586-0.348,1.157-0.723,1.709-1.122
		c0.359-0.26,1.234-0.711,1.12-1.253C345.448,427.086,345.363,427.004,345.259,426.996z"/>
	<path style="fill:#272525;" d="M597.729,81.046c-2.308-0.611-4.706-0.906-7.081-1.067c-2.391-0.162-4.804-0.199-7.2-0.142
		c-2.347,0.056-4.698,0.17-7.041,0.325c-1.357,0.09-2.715,0.207-4.067,0.363c0.032-0.01,0.064-0.02,0.096-0.031
		c5.361-1.76,10.671-3.675,15.977-5.601c2.863-1.039,5.763-2.028,8.431-3.54c0.449-0.255,0.189-0.847-0.238-0.901
		c-1.692-0.213-3.417-0.13-5.111,0.014c-1.689,0.144-3.372,0.373-5.045,0.647c-3.334,0.545-6.649,1.22-9.965,1.866
		c-6.528,1.272-13.054,2.594-19.494,4.281c-0.135,0.035-0.269,0.071-0.404,0.107c2.643-0.975,5.283-1.957,7.921-2.948
		c3.458-1.299,6.913-2.608,10.368-3.916c3.292-1.246,6.62-2.423,9.868-3.785c1.715-0.72,3.415-1.484,5.059-2.363
		c1.669-0.893,3.256-1.923,4.826-2.985c0.372-0.252,0.224-0.83-0.225-0.852c-3.767-0.188-7.547,0.635-11.169,1.624
		c-3.61,0.986-7.178,2.146-10.751,3.265c-7.024,2.2-14.032,4.493-20.843,7.322c-0.439,0.183-0.876,0.374-1.314,0.561
		c1.303-0.7,2.609-1.394,3.915-2.087c6.364-3.371,12.712-6.766,18.661-10.875c1.653-1.141,3.268-2.34,4.835-3.601
		c1.606-1.293,3.171-2.631,4.443-4.281c0.229-0.297,0.123-0.892-0.342-0.848c-0.841,0.078-1.686,0.306-2.499,0.532
		c-0.779,0.217-1.547,0.474-2.305,0.76c-1.547,0.583-3.046,1.288-4.522,2.038c-3.101,1.577-6.159,3.243-9.249,4.844
		c-6.284,3.257-12.623,6.4-18.999,9.463c-1.7,0.817-3.41,1.614-5.115,2.422c0.965-0.696,1.93-1.392,2.889-2.098
		c4.638-3.413,9.279-6.854,13.353-10.977c1.136-1.15,2.226-2.348,3.254-3.6c1.016-1.236,2.256-2.665,2.379-4.351
		c0.03-0.415-0.445-0.613-0.759-0.447c-1.576,0.833-3.125,1.719-4.659,2.633c-0.356,0.174-0.707,0.361-1.052,0.546
		c-1.155,0.617-2.267,1.314-3.35,2.053c-2.216,1.512-4.31,3.201-6.442,4.834c-4.554,3.489-9.295,6.714-14.133,9.772
		c-9.897,6.256-20.169,11.873-30.349,17.624c-10.666,6.026-21.332,12.052-31.998,18.078c-4.808,2.717-9.743,5.288-13.52,9.476
		c-3.65,4.048-6.501,8.841-9.655,13.289c-6.366,8.98-13.259,17.484-21.28,24.965c-0.675,0.63-1.362,1.246-2.047,1.864
		c-0.89-0.84-1.807-1.649-2.755-2.42c-3.096-2.515-6.416-4.745-9.681-7.02c-0.906-0.632-1.807-1.275-2.732-1.879
		c-0.773-0.505-1.596-1.017-2.451-1.393c-0.117-0.112-0.234-0.223-0.35-0.335c-1.26-1.199-2.57-2.345-3.923-3.432
		c-2.712-2.18-5.587-4.15-8.624-5.821c-0.853-0.469-1.715-0.919-2.589-1.345c-0.805-0.393-1.641-0.788-2.508-1.019
		c0.007-0.284,0.011-0.566-0.024-0.854c-0.101-0.834-0.585-1.479-1.085-2.114c-0.475-0.604-0.997-1.158-1.58-1.653
		c-0.305-0.259-0.618-0.507-0.95-0.729c-0.07-0.047-0.148-0.102-0.231-0.156c-0.003-0.403-0.018-0.804-0.075-1.197
		c-0.271-1.87-1.769-3.495-3.192-4.583c-0.414-0.316-0.855-0.632-1.332-0.839c-0.048-0.021-0.152-0.064-0.272-0.104
		c0.018-0.459,0.038-0.917,0.04-1.376c0.003-0.556-0.156-1.008-0.538-1.405c-0.71-0.737-1.476-1.435-2.238-2.115
		c-0.771-0.688-1.579-1.349-2.445-1.908c-0.251-0.162-0.507-0.322-0.774-0.453c-0.145-0.071-0.311-0.161-0.478-0.193
		c0.02-0.206,0.027-0.412-0.008-0.615c-0.078-0.462-0.37-0.859-0.712-1.157c-0.748-0.652-1.659-1.153-2.54-1.587
		c-0.917-0.451-1.873-0.838-2.858-1.104c-0.535-0.144-1.078-0.265-1.626-0.344c-0.184-0.027-0.445-0.082-0.709-0.109
		c0.022-0.047,0.044-0.094,0.066-0.141c0.25-0.534,0.461-1.045,0.188-1.618c-0.24-0.503-0.734-0.887-1.135-1.249
		c-0.869-0.785-1.777-1.564-2.856-2.024c-1.025-0.437-2.146-0.572-3.249-0.537c-0.635,0.02-1.266,0.093-1.891,0.203
		c-0.093,0.016-0.189,0.032-0.284,0.048c0.408-0.566,0.816-1.144,1.147-1.76c0.635-1.183,0.93-2.71,0.067-3.863
		c-0.388-0.518-0.93-0.865-1.399-1.296c-0.458-0.42-0.873-0.886-1.323-1.316c-0.932-0.89-2.242-1.833-3.517-1.073
		c-0.477,0.285-0.913,0.669-1.293,1.09c0.09-0.588,0.18-1.176,0.285-1.761c0.12-0.675,0.286-1.355,0.31-2.043
		c0.024-0.688-0.148-1.35-0.518-1.925c-0.343-0.532-0.79-0.987-1.214-1.45c-1.148-1.254-2.269-2.554-3.486-3.736
		c-0.169-0.164-0.484-0.198-0.648,0c-0.087,0.106-0.17,0.216-0.249,0.33c-0.023-0.68-0.053-1.36-0.107-2.037
		c-0.099-1.249-0.445-2.351-1.221-3.331c-0.772-0.974-1.816-1.707-2.863-2.332c-0.207-0.124-0.486-0.05-0.608,0.163
		c-0.225,0.394-0.451,0.788-0.675,1.182c-0.032,0.057-0.066,0.115-0.1,0.173c-0.147-0.293-0.299-0.583-0.459-0.863
		c-0.272-0.474-0.573-0.93-0.901-1.364c-0.289-0.382-0.639-0.778-1.126-0.87c-0.406-0.076-0.803,0.15-1.005,0.51
		c-2.378,3.225-4.223,6.861-5.8,10.556c-1.587,3.719-3.167,7.716-3.197,11.836c-0.015,2.101,0.417,4.164,1.027,6.16
		c0.311,1.017,0.65,2.028,0.935,3.053c0.296,1.065,0.551,2.148,0.869,3.204c1.264,4.195,2.492,8.405,3.812,12.583
		c0.55,1.741,1.19,3.503,2.251,4.992c1.052,1.477,2.468,2.57,4.018,3.447c1.549,0.876,3.189,1.572,4.773,2.377
		c1.597,0.811,3.165,1.683,4.701,2.609c6.18,3.726,11.822,8.326,16.969,13.431c5.189,5.146,9.89,10.796,14.226,16.709
		c0.534,0.728,1.071,1.448,1.626,2.158c0.055,0.07,0.121,0.104,0.19,0.125c-0.003,0.031-0.007,0.062-0.01,0.093
		c-0.043,0.611-0.009,1.231,0.067,1.838c0.039,0.312,0.079,0.65,0.145,0.98c-0.035,0.007-0.07,0.012-0.105,0.019
		c-0.634,0.133-1.259,0.297-1.867,0.526c-1.22,0.46-2.43,0.943-3.591,1.546c-1.165,0.605-2.294,1.293-3.383,2.033
		c-1.06,0.72-2.155,1.462-3.073,2.37c-0.491,0.485-0.935,1.045-1.218,1.685c-0.215,0.486-0.4,1.082-0.427,1.657
		c-0.796,0.675-1.56,1.389-2.069,2.327c-0.647,1.192-0.753,2.645-0.58,3.976c0.182,1.398,0.763,2.626,1.539,3.777
		c0.394,0.585,0.842,1.136,1.307,1.663c0.298,0.337,0.621,0.727,0.989,1.029c0.07,0.138,0.155,0.261,0.267,0.349
		c0.072,0.056,0.187,0.046,0.274-0.002c0.014,0.007,0.028,0.015,0.043,0.021c0.085,0.036,0.138-0.076,0.108-0.143
		c-0.007-0.016-0.019-0.03-0.027-0.046c0.063-0.195,0.045-0.375,0.029-0.586c-0.019-0.242-0.03-0.484-0.047-0.726
		c-0.006-0.085-0.018-0.17-0.025-0.255c0.053-0.121,0.076-0.237,0.074-0.377c-0.001-0.125-0.048-0.255,0.022-0.35
		c0.08-0.109,0.411-0.212,0.536-0.279c0.185-0.099,0.368-0.201,0.552-0.304c0.416-0.231,0.832-0.463,1.248-0.695
		c0.371,0.321,1.013,0.251,1.473,0.306c0.519,0.061,1.037,0.137,1.55,0.239c1.039,0.207,2.065,0.507,3.058,0.882
		c0.997,0.376,1.96,0.85,2.879,1.395c0.938,0.557,1.812,1.271,2.791,1.745c0.081,0.039,0.197-0.047,0.136-0.139
		c-0.078-0.116-0.162-0.229-0.25-0.338c-0.032-0.081-0.075-0.163-0.115-0.229c-0.069-0.117-0.12-0.24-0.177-0.364c0,0,0,0,0,0
		c0.001-0.002,0.002-0.001,0.003-0.005c0.003-0.012-0.022-0.174-0.011-0.086c-0.001-0.01-0.003-0.02-0.004-0.029
		c0.013,0.002,0.03,0.006,0.043,0.009c0.028,0.007,0.057,0.014,0.085,0.021c0.056,0.014,0.112,0.027,0.168,0.04
		c0.044,0.02,0.089,0.038,0.132,0.059c1.096,0.506,2.159,1.076,3.226,1.643c1.103,0.587,2.222,1.142,3.331,1.717
		c1.088,0.564,2.17,1.154,3.284,1.656c0.101,0.046,0.253-0.056,0.186-0.173c-0.001-0.007,0.001-0.013-0.001-0.02
		c-0.024-0.076-0.052-0.148-0.093-0.216c-0.02-0.033-0.041-0.066-0.063-0.098c-0.001-0.002-0.003-0.004-0.004-0.006
		c-0.002-0.004-0.004-0.011-0.011-0.027c-0.01-0.025-0.021-0.05-0.036-0.073c-0.004-0.007-0.007-0.014-0.011-0.021
		c0.016,0.039,0.014,0.037-0.004-0.008c0.002,0.005-0.035-0.079-0.036-0.079l0.013,0.032c-0.008-0.02-0.016-0.04-0.024-0.06
		c-0.002-0.005-0.012-0.031-0.022-0.054c0.003,0.003,0-0.011-0.01-0.023c0.003,0.008,0.004,0.011,0.006,0.015
		c-0.004-0.007-0.007-0.018-0.01-0.02c0.002,0.001,0.002,0.003,0.004,0.005c0-0.001,0-0.001,0-0.001
		c-0.006-0.018-0.012-0.037-0.018-0.055c-0.012-0.037-0.021-0.075-0.03-0.113c-0.001-0.006-0.001-0.01-0.001-0.016
		c0.052,0.036,0.107,0.07,0.154,0.105c0.256,0.191,0.517,0.372,0.784,0.548c0.514,0.34,1.032,0.674,1.558,0.994
		c1.052,0.64,2.121,1.251,3.203,1.836c2.205,1.192,4.461,2.268,6.766,3.241c2.341,0.988,4.718,1.881,7.094,2.777
		c2.4,0.906,4.805,1.707,7.333,2.141c1.363,0.234,2.74,0.39,4.119,0.487c0.586,0.041,1.173,0.081,1.759,0.092
		c0.061,0.005,0.122,0.009,0.182,0.015c0.67,0.063,1.341,0.126,2.013,0.156c1.322,0.059,2.644,0.074,3.967,0.06
		c2.669-0.028,5.336-0.154,8-0.312c2.646-0.157,5.29-0.341,7.935-0.517c2.645-0.176,5.291-0.314,7.936-0.488
		c1.465-0.096,2.929-0.246,4.387-0.424c0.317-0.039,0.633-0.088,0.949-0.131c0.025,0.004,0.051,0.004,0.078-0.002
		c0.028-0.006,0.057-0.014,0.086-0.021c0.201-0.028,0.401-0.053,0.602-0.083c0.09,0.015,0.18,0.048,0.272,0.048
		c0.1,0,0.208-0.03,0.305-0.053c0.445-0.104,0.882-0.235,1.331-0.328c0.423-0.087,0.849-0.159,1.277-0.207
		c0.476-0.054,0.95-0.07,1.415-0.194c0.31-0.083,0.385-0.476,0.181-0.704c-0.111-0.124-0.196-0.283-0.274-0.446
		c0.702-0.135,1.423,0.587,1.998,0.894c0.959,0.511,1.95,0.268,2.903-0.123c0.955-0.393,1.861-0.868,2.751-1.396
		c0.411-0.244,0.829-0.46,1.261-0.661c0.277-0.129,0.585-0.203,0.875-0.307c0.192,0.05,0.385,0.1,0.577,0.146
		c0.532,0.128,1.052,0.289,1.592,0.377c0.545,0.089,1.093,0.162,1.642,0.218c1.086,0.111,2.18,0.152,3.271,0.121
		c0.546-0.015,1.091-0.049,1.635-0.1c0.543-0.051,1.085-0.096,1.575-0.361c0.234-0.127,0.233-0.508,0-0.635
		c-0.025-0.014-0.043-0.034-0.064-0.051c0.298,0.099,0.581,0.292,0.841,0.435c0.46,0.253,0.936,0.408,1.454,0.475
		c0.996,0.128,1.995-0.033,2.992-0.05c1.053-0.017,2.096,0.091,3.128,0.306c0.799,0.167,1.981,0.537,2.634-0.107
		c0.147-0.017,0.294-0.043,0.44-0.059c0.289-0.03,0.578-0.054,0.868-0.076c0.619-0.046,1.24-0.098,1.861-0.122
		c1.213-0.047,2.469-0.118,3.674,0.07c0.574,0.09,1.119,0.307,1.692,0.395c0.52,0.079,1.087,0.058,1.587-0.121
		c0.413-0.148,0.81-0.39,1.062-0.767c0.058,0.007,0.116,0.017,0.174,0.022c1.429,0.117,2.807-0.364,3.956-1.224
		c0.201-0.151,0.334-0.512,0.089-0.709c-0.054-0.043-0.106-0.085-0.159-0.128c2.805,0.005,5.777,0.342,8.215-1.26
		c0.194-0.127,0.213-0.371,0.069-0.544c-0.347-0.417-0.704-0.787-1.099-1.132c0.411-0.136,0.825-0.262,1.242-0.391
		c0.27-0.083,0.402-0.465,0.174-0.674c-0.173-0.159-0.265-0.352-0.411-0.532c-0.018-0.022-0.036-0.043-0.054-0.065
		c0.338-0.145,0.685-0.276,1.012-0.444c0.507-0.261,0.964-0.601,1.402-0.968c0.158-0.132,0.116-0.382,0-0.52
		c-0.397-0.475-0.864-0.867-1.374-1.193c1.21-0.331,2.42-0.714,3.578-1.179c0.271-0.109,0.373-0.501,0.085-0.669
		c-0.609-0.357-1.309-0.574-2.004-0.47c-0.668-0.12-1.35-0.128-2.029-0.161c-0.779-0.039-1.558-0.076-2.338-0.114
		c-1.579-0.077-3.159-0.154-4.738-0.23c-3.117-0.151-6.234-0.303-9.351-0.456c-3.16-0.156-6.318-0.33-9.477-0.507
		c-3.061-0.171-6.168-0.203-9.199-0.698c-1.608-0.263-3.17-0.744-4.674-1.379c-1.439-0.607-2.791-1.404-4.221-2.026
		c0.095-0.432,0.161-0.875,0.175-1.317c0.007-0.23,0.002-0.455-0.028-0.684c-0.026-0.194-0.08-0.366-0.138-0.543
		c0.806-0.168,1.595-0.453,2.257-0.963c0.667-0.514,1.175-1.205,1.367-2.051c0.226-0.995-0.101-1.898-0.325-2.855
		c-0.117-0.501-0.315-0.984-0.358-1.502c-0.029-0.342,0.005-0.676,0.07-1.007c0.016-0.004,0.03-0.01,0.046-0.014
		c1.286-0.299,2.617,0.107,3.889,0.297c1.075,0.161,2.225,0.223,3.258-0.186c0.998-0.395,1.701-1.183,2.158-2.16
		c0.253-0.541,0.425-1.117,0.634-1.676c0.095-0.256,0.183-0.509,0.292-0.759c0.036-0.083,0.074-0.171,0.11-0.26
		c0.514-0.048,1.025-0.158,1.499-0.356c0.697-0.29,1.284-0.734,1.724-1.364c0.222-0.318,0.385-0.671,0.541-1.026
		c0.085-0.193,0.193-0.4,0.276-0.615c1.051,0.099,2.188-0.107,3.122-0.618c1.03-0.564,1.652-1.662,2.198-2.678
		c0.29-0.539,0.548-1.098,0.791-1.66c0.139-0.322,0.364-0.744,0.448-1.148c0.953-0.155,1.947-0.32,2.741-0.916
		c0.743-0.558,1.283-1.333,1.648-2.195c0.211-0.498,0.348-1.019,0.449-1.55c0.037-0.192,0.088-0.428,0.103-0.662
		c0.002,0,0.004,0.001,0.005,0.001c1.275-0.091,2.602-0.281,3.487-1.331c0.424-0.503,0.722-1.087,0.912-1.722
		c0.1-0.335,0.185-0.674,0.252-1.017c0.031-0.161,0.074-0.324,0.086-0.488c0.002-0.033-0.001-0.066-0.002-0.1
		c1.059-0.269,2.118-0.621,2.97-1.342c0.567-0.48,0.931-1.109,1.176-1.811c0.229-0.653,0.456-1.363,0.546-2.065
		c0.024-0.004,0.048-0.006,0.072-0.01c0.873-0.147,1.738-0.441,2.475-0.951c0.667-0.462,1.246-1.078,1.57-1.841
		c0.187-0.44,0.284-0.917,0.334-1.393c0.023-0.215,0.035-0.431,0.065-0.645c0.006-0.04,0.012-0.08,0.019-0.12
		c0.866-0.097,1.661-0.38,2.402-0.857c0.689-0.444,1.381-0.989,1.718-1.772c0.184-0.429,0.226-0.901,0.264-1.364
		c0.022-0.268,0.059-0.556,0.058-0.838c0.311,0.038,0.624,0.048,0.934-0.02c0.435-0.095,0.81-0.344,1.169-0.6
		c0.693-0.494,1.51-0.963,2.002-1.686c0.462-0.68,0.409-1.502,0.297-2.288c1.149-0.21,2.261-0.772,3.273-1.337
		c0.806-0.45,1.48-0.932,1.739-1.884c0.114-0.418,0.141-0.866,0.091-1.295c-0.03-0.258-0.069-0.536-0.138-0.804
		c0.106-0.022,0.208-0.049,0.3-0.071c0.352-0.087,0.679-0.203,1.006-0.362c0.686-0.333,1.279-0.832,1.724-1.464
		c0.803-1.141,1.035-2.823,0.568-4.17c0.625-0.422,1.239-0.86,1.827-1.333c0.595-0.479,1.28-0.977,1.768-1.59
		c0.308,0.082,0.67,0.071,0.949,0.088c0.561,0.034,1.122,0.033,1.683-0.013c1.077-0.088,2.093-0.337,3.084-0.78
		c0.832-0.372,1.603-0.846,2.28-1.47c0.586-0.539,1.186-1.209,1.562-1.942c0.739,0.017,1.381-0.456,1.957-0.934
		c0.759-0.63,1.51-1.268,2.267-1.901c0.37-0.31,0.737-0.622,1.106-0.934c0.352-0.298,0.792-0.581,1.077-0.949
		c0.306-0.397,0.172-0.854,0.094-1.31c-0.061-0.358-0.113-0.726-0.243-1.064c1.428-0.863,2.822-1.787,4.171-2.774
		c0.95-0.696,1.879-1.423,2.785-2.178c0.441-0.367,0.925-0.699,0.802-1.356c-0.017-0.092-0.069-0.335-0.15-0.568
		c0.098-0.026,0.196-0.05,0.293-0.076c1.345-0.37,2.69-0.762,3.989-1.279c1.26-0.501,2.463-1.131,3.618-1.849
		c1.291-0.803,2.562-1.648,3.749-2.607c0.167-0.135,0.076-0.379-0.061-0.483c-0.26-0.197-0.562-0.408-0.883-0.565
		c0.235-0.027,0.471-0.047,0.706-0.076c1.705-0.212,3.404-0.484,5.085-0.852c1.682-0.369,3.302-0.903,4.944-1.417
		c1.933-0.605,3.856-1.26,5.803-1.816c0.355-0.101,0.381-0.677,0-0.764c-2.584-0.593-5.188-0.988-7.836-1.083
		c-0.791-0.028-1.582-0.02-2.374,0.005c3.589-0.76,7.18-1.512,10.775-2.241c1.151-0.233,2.302-0.465,3.453-0.701
		c1.169-0.239,2.338-0.513,3.515-0.708C598.14,81.788,598.098,81.144,597.729,81.046z"/>
</g>
</svg>
